<?xml version="1.0" standalone="no"?>
<!DOCTYPE svg PUBLIC "-//W3C//DTD SVG 20010904//EN"
 "http://www.w3.org/TR/2001/REC-SVG-20010904/DTD/svg10.dtd">
<svg version="1.0" xmlns="http://www.w3.org/2000/svg"
 width="978.000000pt" height="1024.000000pt" viewBox="0 0 978.000000 1024.000000"
 preserveAspectRatio="xMidYMid meet">

<g transform="translate(0.000000,1024.000000) scale(0.100000,-0.100000)"
fill="#000000" stroke="none">
<path d="M782 9956 c-114 -38 -212 -109 -289 -210 -68 -90 -138 -243 -172
-377 -49 -197 -56 -274 -56 -634 1 -297 4 -351 28 -540 55 -441 67 -725 34
-845 -28 -101 -64 -171 -115 -223 -50 -52 -81 -71 -146 -93 -39 -13 -39 -13
-6 -7 43 7 117 43 158 77 35 31 84 106 103 159 7 20 16 37 19 37 8 0 -5 -133
-20 -204 -10 -48 -18 -62 -66 -106 -58 -52 -63 -65 -12 -29 71 51 27 -32 -58
-110 -31 -28 -60 -51 -66 -51 -6 0 -9 -3 -5 -6 9 -10 94 45 126 82 35 40 136
235 162 314 13 39 18 47 18 29 1 -45 -48 -199 -87 -273 -40 -76 -132 -182
-189 -217 -20 -13 -31 -25 -26 -30 5 -5 47 -14 94 -21 197 -26 383 59 516 237
137 183 212 424 235 765 14 200 26 178 35 -66 9 -239 -16 -372 -98 -538 -52
-104 -119 -204 -188 -279 -77 -83 -27 -54 64 37 151 152 254 383 299 673 l14
88 1 -81 c1 -82 -28 -220 -65 -314 -9 -22 -14 -43 -12 -46 3 -2 16 23 29 55
13 33 25 58 27 56 5 -5 -33 -111 -60 -170 l-19 -40 31 35 c42 48 103 170 134
268 60 190 56 353 -13 613 -21 79 -55 207 -75 284 -20 77 -41 149 -46 160 -4
11 -13 54 -20 95 -6 41 -14 86 -17 100 l-6 25 32 -29 c36 -34 35 -34 16 19
-18 51 -18 188 -1 238 15 40 40 73 66 87 13 7 16 -4 16 -83 0 -93 21 -197 49
-246 8 -14 17 -33 21 -43 3 -9 15 -19 26 -21 16 -5 19 -12 16 -30 -6 -33 39
-83 129 -140 103 -66 169 -86 219 -66 l29 11 -52 13 c-136 32 -230 170 -239
350 l-3 80 9 -67 c6 -38 16 -83 24 -100 14 -32 14 -30 15 57 2 108 22 211 53
268 l23 42 70 2 c39 1 90 9 115 17 39 14 42 14 25 1 -23 -18 -80 -35 -118 -35
-42 0 -30 -18 43 -61 120 -73 160 -84 300 -83 104 0 134 4 179 22 67 26 78 22
19 -7 -24 -12 -54 -28 -68 -37 -24 -14 -22 -15 36 -11 64 5 138 36 193 82 19
17 31 22 31 13 0 -31 -50 -117 -80 -138 -39 -28 -30 -35 58 -45 82 -9 176 20
252 77 46 34 57 39 87 33 20 -3 46 -17 59 -30 13 -13 24 -19 24 -12 0 21 -30
56 -60 72 l-29 15 30 44 c17 24 39 67 48 96 l17 52 29 -63 c37 -82 46 -188 20
-255 -9 -24 -24 -48 -33 -54 -14 -8 -12 -9 11 -10 31 0 31 0 8 -104 l-17 -80
-21 21 c-20 20 -23 21 -65 6 -60 -21 -204 -13 -278 16 -62 24 -73 25 -68 10 2
-6 7 -10 11 -9 5 1 18 -5 31 -14 13 -8 48 -22 77 -30 30 -9 60 -25 67 -36 11
-18 10 -19 -21 -13 -33 6 -82 29 -127 60 l-25 17 25 -28 c51 -58 155 -86 233
-62 27 8 55 12 63 9 8 -3 14 0 14 5 0 7 15 9 38 6 35 -5 36 -5 18 10 -19 16
-19 16 2 16 27 0 28 -23 7 -160 -10 -67 -11 -98 -3 -107 16 -20 125 -16 176 7
52 24 54 40 3 40 -48 0 -100 33 -124 80 -25 47 -16 140 23 263 27 86 34 96 85
140 105 91 139 192 111 327 -9 41 -30 104 -48 140 -41 85 -141 186 -227 228
-51 25 -72 43 -99 84 -138 206 -447 370 -728 385 -86 5 -112 2 -172 -16 -38
-11 -83 -21 -98 -21 -15 0 -46 -9 -68 -19 -23 -11 -70 -27 -106 -36 -36 -8
-101 -33 -145 -55 -44 -21 -97 -43 -118 -49 -58 -15 -108 -57 -102 -84 5 -18
-3 -30 -34 -55 -22 -18 -42 -32 -45 -32 -8 0 21 78 38 101 8 12 38 39 68 61
29 22 70 56 91 76 57 54 141 162 132 170 -3 4 -11 -2 -17 -13 -6 -11 -47 -56
-91 -100 l-81 -80 -9 37 c-8 32 0 95 24 188 3 13 -15 15 -116 17 -103 2 -130
-1 -193 -21z m-425 -1946 l0 -105 -8 85 c-4 47 -7 119 -7 160 l1 75 7 -55 c5
-30 8 -102 7 -160z m57 -435 c0 -229 -16 -366 -50 -424 -9 -14 -13 -18 -10 -8
12 37 25 246 32 487 6 198 10 237 18 205 6 -22 10 -139 10 -260z m721 -20 c-6
-77 -33 -220 -40 -213 -2 2 2 40 10 83 8 44 15 139 16 210 1 122 2 126 11 65
5 -36 6 -101 3 -145z"/>
<path d="M1610 8667 c0 -5 9 -11 20 -14 12 -3 19 -10 17 -16 -5 -15 79 -86
123 -105 37 -16 200 -24 200 -10 0 4 12 3 26 -2 40 -16 51 -11 24 10 l-25 19
40 -6 39 -6 -24 29 c-23 28 -27 29 -96 26 -80 -4 -156 13 -238 55 -51 26 -106
36 -106 20z m197 -107 c16 -23 16 -23 -13 -16 -16 4 -44 17 -63 29 -30 18 -32
21 -15 27 25 9 71 -11 91 -40z"/>
<path d="M1810 8168 c1 -30 46 -93 70 -96 l25 -4 -22 24 c-13 13 -23 31 -23
40 0 9 -11 23 -25 32 -18 12 -25 13 -25 4z"/>
<path d="M2249 8083 c-31 -50 -32 -53 -22 -53 5 0 23 20 41 45 21 30 27 45 18
45 -8 0 -25 -17 -37 -37z"/>
<path d="M1820 8096 c0 -11 30 -66 36 -66 2 0 -3 15 -12 33 -19 36 -24 44 -24
33z"/>
<path d="M1890 7985 c19 -19 36 -35 39 -35 3 0 -10 16 -29 35 -19 19 -36 35
-39 35 -3 0 10 -16 29 -35z"/>
<path d="M1947 7939 c7 -7 15 -10 18 -7 3 3 -2 9 -12 12 -14 6 -15 5 -6 -5z"/>
<path d="M1988 7923 c7 -3 16 -2 19 1 4 3 -2 6 -13 5 -11 0 -14 -3 -6 -6z"/>
<path d="M2058 7913 c17 -2 47 -2 65 0 17 2 3 4 -33 4 -36 0 -50 -2 -32 -4z"/>
<path d="M2129 7590 c61 -92 101 -182 101 -225 0 -81 -85 -165 -210 -207 l-55
-19 43 6 c71 9 163 57 205 105 20 24 37 48 37 53 0 5 18 -27 41 -71 41 -80 41
-81 23 -106 -23 -30 -77 -61 -123 -70 -19 -3 -77 -26 -130 -50 -113 -51 -147
-60 -202 -51 -61 10 -101 53 -159 167 -28 56 -71 129 -95 163 -56 79 -180 195
-209 195 -29 0 -137 -116 -181 -195 -45 -81 -42 -104 5 -35 19 28 49 60 67 71
l32 20 30 -29 c17 -16 31 -32 31 -35 0 -4 37 -57 82 -119 94 -129 122 -183
143 -271 16 -68 20 -177 7 -177 -14 0 -36 30 -67 87 -29 55 -75 107 -62 70 4
-12 -12 -2 -40 23 -90 79 -224 140 -279 126 -41 -11 -27 -26 24 -26 58 0 144
-39 226 -104 33 -25 65 -46 72 -46 8 0 32 -39 55 -87 145 -305 354 -623 409
-623 11 0 22 -4 25 -10 3 -5 2 -10 -3 -10 -13 0 -61 -136 -64 -182 -2 -20 2
-38 7 -39 11 -1 63 142 64 177 1 24 29 40 44 25 5 -5 29 -2 60 9 29 10 68 20
88 23 l36 5 -14 -51 c-26 -103 -10 -214 41 -282 l26 -34 -82 -25 c-115 -35
-228 -63 -279 -71 -39 -6 -51 -2 -108 33 l-65 39 -90 -19 c-189 -40 -350 -109
-377 -160 -26 -48 29 -138 85 -138 51 0 143 28 234 70 95 45 100 46 82 25 -10
-12 -10 -18 0 -30 13 -16 9 -18 -26 -16 -23 2 -121 -67 -197 -138 -85 -79
-172 -215 -233 -364 l-33 -82 32 -12 c18 -6 35 -12 38 -12 4 -1 19 34 34 77
48 135 102 227 188 318 75 80 106 103 93 69 -3 -8 0 -28 6 -43 13 -33 17 -101
7 -122 -6 -13 -55 -296 -64 -370 -2 -14 -6 -35 -10 -47 -6 -17 -3 -23 9 -23 9
0 16 -7 16 -15 0 -8 -8 -15 -19 -15 -16 0 -21 -16 -36 -107 -9 -60 -23 -136
-31 -171 -8 -34 -12 -67 -9 -73 4 -5 2 -15 -3 -22 -5 -7 -15 -45 -22 -85 -10
-59 -9 -76 1 -88 11 -13 10 -19 -8 -32 -17 -14 -22 -30 -25 -79 -2 -39 0 -59
6 -53 17 17 36 11 36 -11 0 -16 -5 -20 -20 -16 -22 6 -22 7 -26 -48 -1 -22 -6
-74 -11 -116 -6 -50 -5 -82 2 -93 7 -12 6 -19 -4 -25 -9 -6 -12 -18 -8 -32 3
-13 1 -29 -5 -36 -6 -7 -8 -31 -5 -52 2 -22 1 -43 -3 -48 -4 -4 -11 -37 -14
-73 l-7 -66 148 -12 c81 -6 234 -28 338 -47 105 -20 208 -34 230 -33 l40 3
-39 12 c-56 18 -76 39 -76 85 l0 38 53 0 c53 0 208 16 422 45 158 20 178 25
191 43 10 13 15 14 27 4 19 -16 67 -5 67 14 0 16 16 19 25 4 9 -15 25 -12 25
5 0 17 27 20 32 4 8 -23 308 76 381 126 33 23 37 31 37 66 0 29 7 50 25 71 14
16 25 36 25 43 0 8 -32 77 -71 155 -67 135 -70 143 -72 218 -2 75 -4 82 -89
257 -88 182 -148 324 -148 350 0 7 -5 26 -10 40 l-10 27 -19 -23 -18 -22 -26
74 c-49 139 -77 251 -152 619 -20 96 -45 209 -56 252 -10 42 -19 82 -19 90 0
9 22 14 82 15 66 2 87 -1 113 -17 43 -27 89 -26 115 2 32 34 25 41 -39 33
l-59 -7 -11 54 c-6 29 -13 69 -14 88 -2 19 -5 -1 -6 -45 -1 -65 -4 -76 -13
-60 -16 29 -18 31 -27 16 -5 -8 -35 -15 -73 -18 -51 -4 -67 -2 -81 11 -15 15
-21 13 -79 -30 -78 -57 -192 -124 -211 -124 -8 0 -25 24 -38 53 -28 64 -37
192 -17 250 12 36 18 41 109 76 164 64 338 168 323 192 -3 6 -12 2 -19 -8 -11
-14 -16 -15 -26 -6 -7 7 -24 9 -42 6 -27 -6 -29 -4 -22 18 8 23 32 48 48 49
18 0 87 52 87 64 0 12 -11 11 -62 -5 -35 -11 -71 -24 -80 -30 -12 -6 -18 -6
-18 1 0 5 20 19 44 31 46 21 69 42 79 72 7 18 -7 24 -18 8 -8 -14 -135 -80
-135 -71 0 4 18 35 41 70 l40 63 -35 -6 c-20 -3 -36 -2 -36 4 0 5 5 9 10 9 6
0 8 10 4 24 -5 22 -3 25 22 22 15 -2 30 -9 32 -16 3 -9 -2 -11 -17 -7 -18 4
-20 3 -11 -8 12 -14 40 -10 40 5 0 5 8 16 17 25 15 16 15 19 -2 50 -19 36 -18
52 11 156 31 115 2 189 -139 353 -74 86 -129 170 -196 304 -61 118 -86 142
-147 142 l-44 0 59 -90z m441 -878 c0 -11 -37 -32 -44 -25 -11 11 -6 21 12 26
28 8 32 7 32 -1z m-40 -122 c0 -5 -4 -10 -10 -10 -5 0 -10 5 -10 10 0 6 5 10
10 10 6 0 10 -4 10 -10z m-880 -947 c-1 -16 -92 -76 -152 -101 -41 -17 -87
-27 -133 -29 -66 -4 -69 -3 -50 13 31 26 101 55 215 90 116 36 120 37 120 27z
m-10 -218 c0 -8 -4 -15 -10 -15 -5 0 -10 7 -10 15 0 8 5 15 10 15 6 0 10 -7
10 -15z m-30 -91 c0 -9 -5 -14 -12 -12 -18 6 -21 28 -4 28 9 0 16 -7 16 -16z
m-5 -54 c-5 -8 -11 -8 -17 -2 -6 6 -7 16 -3 22 5 8 11 8 17 2 6 -6 7 -16 3
-22z m395 -200 c0 -15 7 -20 28 -20 19 0 37 -10 53 -27 19 -22 19 -24 3 -10
-12 10 -34 19 -50 20 l-29 2 -5 -83 c-5 -79 -4 -82 17 -82 12 0 29 3 38 6 19
8 45 55 46 86 l0 23 11 -22 c14 -28 -9 -66 -57 -94 -39 -23 -49 -47 -41 -92
11 -65 10 -161 -2 -165 -8 -2 -12 16 -12 62 0 36 -4 66 -8 66 -5 0 -8 -28 -8
-62 l1 -63 -75 -3 c-149 -7 -275 51 -279 126 -1 7 4 10 9 7 6 -3 10 -2 10 3 0
6 10 8 22 4 14 -3 19 -1 14 6 -4 8 -2 10 7 6 8 -3 18 0 22 5 3 6 10 9 14 7 4
-3 26 0 50 5 30 7 47 6 56 -1 18 -15 87 -9 93 8 3 8 -12 12 -51 12 -87 0 -103
14 -23 20 90 6 105 30 19 30 -32 0 -65 5 -73 10 -11 7 5 10 52 10 37 0 70 5
73 10 12 19 55 -46 55 -84 0 -20 5 -36 11 -36 6 0 8 7 5 16 -3 9 -6 26 -6 38
0 13 -13 40 -30 61 -40 50 -41 101 -2 147 l27 33 -27 -17 c-14 -10 -28 -13
-30 -8 -2 5 -38 13 -80 16 -54 5 -78 11 -78 20 0 17 26 21 138 23 86 1 92 0
92 -19z m-70 -60 c0 -6 -31 -9 -77 -8 l-78 2 70 6 c39 4 73 7 78 8 4 1 7 -2 7
-8z m-14 -53 c4 -4 -28 -6 -72 -6 -57 1 -71 3 -49 9 36 9 111 7 121 -3z m367
-31 c-2 -25 0 -27 20 -21 12 4 40 8 62 9 29 1 43 6 50 21 9 17 22 20 80 23 79
3 147 -8 152 -25 3 -7 -21 -17 -58 -25 -69 -15 -98 -44 -35 -34 20 3 52 9 72
12 59 9 30 -12 -36 -26 -33 -7 -60 -17 -60 -22 0 -5 30 -6 68 -3 l67 5 -64
-19 c-35 -11 -66 -23 -70 -27 -3 -4 28 -4 69 -1 l75 6 -67 -22 c-67 -20 -94
-44 -40 -33 116 22 143 12 35 -14 -67 -15 -70 -33 -5 -25 34 4 43 3 31 -4 -21
-14 -181 -52 -188 -46 -2 3 -7 24 -11 48 -4 31 -1 50 12 72 10 17 17 44 17 60
-2 27 -2 27 -6 5 -12 -75 -54 -110 -129 -110 -33 0 -44 -7 -90 -57 -30 -31
-57 -54 -61 -50 -4 4 17 31 46 61 l53 53 -4 82 c-3 81 -11 101 -23 59 -4 -13
-15 -41 -25 -63 -10 -22 -22 -62 -26 -90 -6 -43 -30 -85 -49 -85 -3 0 -5 38
-5 84 0 72 -3 88 -25 119 l-24 37 26 40 27 41 71 -3 70 -3 -2 -29z m-363 -16
c0 -6 -30 -10 -72 -9 -52 1 -66 3 -48 9 36 12 120 12 120 0z m-362 -51 c-2 -6
-8 -10 -13 -10 -5 0 -11 4 -13 10 -2 6 4 11 13 11 9 0 15 -5 13 -11z m-43
-259 c3 -5 -1 -10 -10 -10 -9 0 -13 5 -10 10 3 6 8 10 10 10 2 0 7 -4 10 -10z
m-15 -135 c0 -8 -7 -15 -15 -15 -8 0 -15 7 -15 15 0 8 7 15 15 15 8 0 15 -7
15 -15z m0 -110 c0 -8 -6 -15 -14 -15 -17 0 -28 14 -19 24 12 12 33 6 33 -9z
m-22 -63 c2 -7 -3 -12 -12 -12 -9 0 -16 7 -16 16 0 17 22 14 28 -4z m-38 -72
c0 -5 -7 -10 -16 -10 -8 0 -12 5 -9 10 3 6 10 10 16 10 5 0 9 -4 9 -10z m34
-68 c2 -4 1 -14 -4 -22 -7 -11 -12 -12 -21 -3 -6 6 -8 16 -5 22 8 13 23 14 30
3z m26 -77 c0 -8 -7 -15 -15 -15 -8 0 -15 7 -15 15 0 8 7 15 15 15 8 0 15 -7
15 -15z m-63 -25 c8 -12 9 -21 3 -25 -6 -3 -10 1 -10 9 0 9 -7 16 -15 16 -8 0
-15 5 -15 10 0 17 25 11 37 -10z m49 -51 c10 -17 -13 -36 -27 -22 -12 12 -4
33 11 33 5 0 12 -5 16 -11z m-48 -112 c2 -12 -3 -17 -17 -17 -12 0 -21 6 -21
13 0 31 32 34 38 4z m-33 -37 c3 -5 -1 -10 -10 -10 -9 0 -13 5 -10 10 3 6 8
10 10 10 2 0 7 -4 10 -10z m45 -50 c0 -11 -6 -20 -14 -20 -18 0 -29 16 -21 30
11 18 35 11 35 -10z m47 -5 c7 -20 -2 -29 -21 -22 -9 4 -13 13 -10 22 8 19 23
19 31 0z m-107 -35 c0 -5 -4 -10 -10 -10 -5 0 -10 5 -10 10 0 6 5 10 10 10 6
0 10 -4 10 -10z m80 -9 c0 -12 -20 -25 -27 -18 -7 7 6 27 18 27 5 0 9 -4 9 -9z
m-30 -56 c0 -19 -20 -29 -32 -17 -15 15 -2 43 17 36 8 -3 15 -12 15 -19z m50
5 c0 -5 -4 -10 -10 -10 -5 0 -10 5 -10 10 0 6 5 10 10 10 6 0 10 -4 10 -10z
m40 -16 c0 -8 -5 -12 -10 -9 -6 4 -8 11 -5 16 9 14 15 11 15 -7z m-57 -41 c4
-3 2 -12 -4 -19 -12 -15 -49 -2 -49 16 0 11 43 14 53 3z m45 -44 c-2 -6 -8
-10 -13 -10 -5 0 -11 4 -13 10 -2 6 4 11 13 11 9 0 15 -5 13 -11z m-118 -9 c0
-5 -4 -10 -10 -10 -5 0 -10 5 -10 10 0 6 5 10 10 10 6 0 10 -4 10 -10z m75
-39 c7 -12 -12 -24 -25 -16 -11 7 -4 25 10 25 5 0 11 -4 15 -9z m80 -11 c-3
-5 -10 -10 -16 -10 -5 0 -9 5 -9 10 0 6 7 10 16 10 8 0 12 -4 9 -10z m-135
-10 c0 -5 -4 -10 -10 -10 -5 0 -10 5 -10 10 0 6 5 10 10 10 6 0 10 -4 10 -10z
m-46 -41 c-3 -5 -10 -7 -15 -3 -5 3 -7 10 -3 15 3 5 10 7 15 3 5 -3 7 -10 3
-15z m129 -4 c1 -5 -6 -11 -15 -13 -11 -2 -18 3 -18 13 0 17 30 18 33 0z m47
5 c0 -5 -4 -10 -10 -10 -5 0 -10 5 -10 10 0 6 5 10 10 10 6 0 10 -4 10 -10z
m120 -5 c0 -8 -4 -15 -9 -15 -13 0 -22 16 -14 24 11 11 23 6 23 -9z m121 -10
c-1 -15 -24 -12 -29 3 -3 9 2 13 12 10 10 -1 17 -7 17 -13z m-341 -16 c0 -5
-7 -9 -15 -9 -15 0 -20 12 -9 23 8 8 24 -1 24 -14z m455 2 c7 -12 -12 -24 -25
-16 -11 7 -4 25 10 25 5 0 11 -4 15 -9z m43 -12 c-2 -6 -8 -10 -13 -10 -5 0
-11 4 -13 10 -2 6 4 11 13 11 9 0 15 -5 13 -11z m-468 -20 c0 -5 -7 -9 -15 -9
-15 0 -20 12 -9 23 8 8 24 -1 24 -14z m221 -2 c-1 -12 -15 -9 -19 4 -3 6 1 10
8 8 6 -3 11 -8 11 -12z m380 -2 c-1 -15 -24 -12 -29 3 -3 9 2 13 12 10 10 -1
17 -7 17 -13z m-691 -5 c0 -5 -4 -10 -10 -10 -5 0 -10 5 -10 10 0 6 5 10 10
10 6 0 10 -4 10 -10z m265 0 c-3 -5 -10 -10 -16 -10 -5 0 -9 5 -9 10 0 6 7 10
16 10 8 0 12 -4 9 -10z m-305 -20 c0 -5 -4 -10 -10 -10 -5 0 -10 5 -10 10 0 6
5 10 10 10 6 0 10 -4 10 -10z m80 -24 c-13 -13 -35 7 -25 24 5 8 11 8 21 -1
10 -8 12 -15 4 -23z m488 17 c-4 -22 -22 -20 -26 1 -2 10 3 16 13 16 10 0 15
-7 13 -17z m-428 -3 c0 -5 -2 -10 -4 -10 -3 0 -8 5 -11 10 -3 6 -1 10 4 10 6
0 11 -4 11 -10z m60 -5 c0 -8 -4 -15 -10 -15 -5 0 -10 7 -10 15 0 8 5 15 10
15 6 0 10 -7 10 -15z m185 -15 c-5 -8 -11 -8 -17 -2 -6 6 -7 16 -3 22 5 8 11
8 17 2 6 -6 7 -16 3 -22z m122 15 c7 -20 -2 -29 -21 -22 -9 4 -13 13 -10 22 8
19 23 19 31 0z m-47 -45 c0 -5 -7 -10 -15 -10 -8 0 -15 5 -15 10 0 6 7 10 15
10 8 0 15 -4 15 -10z"/>
<path d="M1969 5023 c-13 -16 -12 -17 4 -4 9 7 17 15 17 17 0 8 -8 3 -21 -13z"/>
<path d="M1735 4761 c-4 -7 13 -11 49 -11 31 0 56 -4 56 -10 0 -13 77 -13 85
1 4 6 4 13 0 17 -11 12 -183 14 -190 3z"/>
<path d="M1740 4710 c0 -5 1 -10 3 -10 1 0 44 -3 96 -7 78 -5 93 -4 89 8 -6
17 -188 26 -188 9z"/>
<path d="M1740 4662 c0 -10 80 -22 148 -22 31 0 42 4 40 13 -5 14 -188 23
-188 9z"/>
<path d="M2333 4905 c-74 -32 -72 -126 3 -149 31 -9 72 12 89 47 20 39 19 60
-2 85 -25 28 -52 33 -90 17z m97 -62 c0 -7 -4 -13 -10 -13 -5 0 -10 12 -10 28
0 21 2 24 10 12 5 -8 10 -21 10 -27z"/>
<path d="M2376 7543 c7 -21 13 -76 14 -123 0 -67 3 -81 12 -66 13 24 5 160
-13 199 -18 40 -29 33 -13 -10z"/>
<path d="M4737 7400 c-94 -16 -189 -51 -350 -130 -94 -46 -187 -99 -221 -127
-69 -56 -139 -153 -159 -221 -22 -72 -84 -169 -125 -197 -45 -29 -172 -57
-224 -49 -21 4 -58 1 -82 -6 -44 -12 -96 -54 -83 -67 4 -3 7 -1 7 5 0 5 15 19
33 30 31 20 66 27 117 23 24 -1 23 -3 -20 -41 -28 -25 -68 -47 -107 -59 -74
-24 -223 -90 -241 -108 -7 -7 -19 -13 -26 -13 -17 0 -57 -35 -49 -44 3 -3 -2
-6 -13 -6 -16 0 -17 -2 -4 -10 12 -8 12 -10 1 -10 -11 0 -11 -3 0 -16 12 -15
11 -16 -11 -9 -24 7 -25 7 -5 -9 20 -17 19 -17 -5 -10 -24 6 -24 5 -6 -8 24
-19 14 -37 -18 -31 -22 5 -26 -1 -51 -77 -21 -62 -26 -95 -23 -136 5 -59 14
-76 28 -54 8 12 10 12 10 -4 0 -34 82 -174 129 -220 51 -50 121 -86 121 -63 0
8 -5 28 -11 44 -5 17 -9 55 -7 84 3 54 3 54 16 24 31 -71 95 -125 147 -125 12
0 10 8 -10 38 -54 82 -52 223 5 312 20 31 51 61 83 81 29 17 71 49 95 72 33
32 42 37 42 23 0 -13 9 -7 30 22 29 40 57 62 80 62 7 0 9 -7 6 -16 -4 -11 -2
-15 6 -11 56 20 61 20 56 -4 -3 -13 -9 -33 -13 -43 -8 -18 -5 -19 36 -13 24 4
55 10 68 13 23 7 23 6 8 -17 -41 -63 -86 -221 -69 -242 5 -7 12 -34 15 -62 3
-27 14 -81 23 -120 28 -109 22 -193 -15 -240 -12 -17 -21 -42 -21 -63 0 -19
-3 -32 -7 -29 -3 4 -11 -3 -17 -15 -14 -28 -63 -45 -88 -29 -21 13 -45 14 -52
2 -4 -5 2 -7 13 -4 33 9 32 -15 -1 -28 -20 -7 -52 -36 -82 -73 l-48 -61 6 -64
c5 -56 3 -68 -20 -108 -23 -37 -26 -52 -21 -96 17 -153 36 -195 97 -224 30
-14 40 -25 45 -51 3 -18 3 -37 -1 -44 -4 -7 -3 -8 4 -4 6 4 16 25 22 47 l11
40 40 -35 c21 -20 46 -36 54 -36 8 0 19 -9 25 -20 16 -30 63 -50 118 -50 57 0
72 12 72 59 0 32 -1 33 -18 18 -10 -10 -30 -17 -45 -17 -30 0 -42 25 -32 70
12 54 41 61 259 59 172 -1 199 1 238 19 66 29 83 54 83 121 0 31 -4 66 -8 79
-15 41 16 24 81 -45 65 -69 136 -196 181 -323 11 -30 20 -50 20 -43 1 11 -40
129 -69 199 -17 40 -10 57 41 94 39 28 40 30 17 30 -14 0 -37 -9 -51 -20 -35
-28 -47 -25 -47 10 0 51 27 90 76 112 42 18 48 18 92 4 26 -9 105 -27 176 -41
71 -13 150 -31 176 -40 122 -41 211 -187 166 -273 -17 -33 -61 -48 -50 -17 4
8 2 15 -4 15 -16 0 -23 -31 -10 -47 9 -11 24 -14 55 -9 86 12 136 57 152 138
l9 43 1 -45 c1 -34 4 -41 11 -30 15 21 1 219 -16 247 -8 13 -29 31 -48 40 -19
10 -53 35 -76 57 l-43 38 22 53 c50 120 -21 218 -177 245 -127 22 -180 68
-167 143 4 23 8 65 9 92 1 50 1 50 -42 70 -42 19 -43 21 -37 55 13 62 9 84
-24 131 -30 43 -32 49 -22 85 12 43 96 178 130 208 19 17 27 18 68 9 26 -6 51
-9 55 -7 5 3 8 27 8 54 0 68 26 131 95 225 104 144 174 321 175 443 0 42 0 42
38 42 53 -1 118 -33 142 -72 16 -26 20 -47 18 -97 l-3 -64 -41 -12 c-42 -12
-142 -74 -165 -101 -7 -8 27 6 75 31 91 47 122 56 112 30 -8 -21 28 -20 104 4
117 37 170 97 170 195 0 54 11 53 40 -4 38 -75 17 -151 -56 -203 -24 -17 -41
-34 -38 -38 13 -22 80 -28 148 -14 82 17 139 49 190 106 55 60 76 112 76 190
0 87 -32 151 -113 225 -147 132 -355 182 -576 138 -76 -15 -83 -15 -173 5
-278 62 -566 87 -721 61z m-580 -320 c-35 -32 -77 -78 -93 -101 -15 -23 -30
-36 -32 -30 -7 21 73 125 122 158 73 50 74 40 3 -27z m-110 -185 c-31 -53 -53
-81 -55 -71 -5 26 91 176 104 163 2 -2 -20 -43 -49 -92z m-274 -247 c-18 -6
-33 -14 -33 -18 0 -10 -89 -35 -96 -27 -16 16 81 55 136 55 22 0 21 -1 -7 -10z
m272 -355 c-14 -35 -38 -129 -49 -190 -11 -62 -31 -103 -21 -45 15 92 15 97 4
80 -5 -10 -13 -40 -16 -68 -3 -27 -9 -47 -14 -45 -18 12 22 182 57 242 24 42
53 61 39 26z m-596 -219 c-16 -42 -14 -172 4 -222 14 -41 14 -43 -2 -28 -43
39 -54 171 -21 245 22 48 38 52 19 5z m575 -344 c1 -58 -3 -71 -31 -116 -20
-30 -33 -64 -33 -82 0 -21 -10 -43 -30 -64 -32 -36 -41 -25 -11 13 10 13 21
42 25 64 4 22 21 60 37 84 36 55 44 96 29 152 -20 77 -20 85 -3 49 9 -20 16
-63 17 -100z m1101 -238 c-3 -3 -11 0 -18 7 -9 10 -8 11 6 5 10 -3 15 -9 12
-12z m-1237 -44 c-6 -17 -67 -46 -113 -53 l-40 -6 24 18 c21 16 103 50 124 52
5 1 7 -4 5 -11z m1397 -8 c31 -11 62 -17 68 -13 5 3 7 2 4 -4 -4 -6 5 -21 20
-34 35 -32 56 -84 48 -120 -4 -16 -11 -29 -17 -29 -6 0 -16 -7 -22 -15 -9 -13
-18 -8 -59 33 -32 33 -51 62 -57 88 -5 21 -7 40 -4 43 10 10 81 -59 102 -99
12 -24 22 -36 22 -27 0 56 -79 133 -171 167 -32 12 -59 24 -59 26 0 11 74 2
125 -16z m115 -45 c13 -14 21 -25 18 -25 -2 0 -15 11 -28 25 -13 14 -21 25
-18 25 2 0 15 -11 28 -25z m-1632 -42 c-14 -16 -36 -48 -49 -73 -21 -41 -24
-43 -27 -20 -2 13 1 41 7 62 9 30 18 40 44 47 50 14 52 13 25 -16z m418 -62
c-27 -51 -36 -44 -13 10 12 29 23 45 25 36 2 -9 -4 -29 -12 -46z m-25 18 c-5
-13 -21 -35 -36 -49 -25 -23 -24 -22 7 26 35 55 44 61 29 23z m1249 -103 c0
-8 -4 -18 -10 -21 -5 -3 -10 3 -10 14 0 12 5 21 10 21 6 0 10 -6 10 -14z
m-1370 -1 c0 -6 -88 -45 -98 -44 -4 0 16 11 43 24 58 28 55 27 55 20z m-10
-36 c-90 -54 -141 -130 -162 -244 -12 -68 -12 -68 -25 -39 -15 35 -8 139 13
171 24 38 67 73 128 103 68 34 98 40 46 9z m-350 -19 c0 -6 -7 -25 -16 -41 -8
-17 -13 -33 -10 -37 3 -3 6 0 6 7 0 7 5 9 10 6 6 -3 10 -21 10 -39 0 -19 7
-53 15 -76 8 -24 14 -45 12 -47 -2 -2 -19 11 -36 29 -29 29 -32 38 -27 73 3
22 3 34 0 28 -3 -7 -10 -13 -16 -13 -15 0 -3 63 17 94 18 27 35 34 35 16z
m1044 -114 c-3 -21 -8 -35 -11 -32 -2 2 -1 20 3 40 3 21 8 35 11 32 2 -2 1
-20 -3 -40z m846 -8 c20 -33 28 -71 12 -52 -23 25 -52 84 -43 84 6 0 20 -15
31 -32z m-1871 -134 c43 -50 50 -64 27 -64 -20 0 -63 47 -75 81 -14 42 1 36
48 -17z m568 31 c98 -14 115 -14 154 -1 49 17 62 14 27 -6 -17 -10 -67 -12
-203 -10 l-181 3 -39 -27 c-28 -18 -35 -21 -25 -8 51 65 94 73 267 49z"/>
<path d="M120 6920 c-20 -6 -21 -8 -5 -8 11 0 29 3 40 8 25 11 -1 11 -35 0z"/>
<path d="M38 6773 c6 -2 18 -2 25 0 6 3 1 5 -13 5 -14 0 -19 -2 -12 -5z"/>
<path d="M3306 6635 c-3 -8 -1 -15 4 -15 6 0 10 7 10 15 0 8 -2 15 -4 15 -2 0
-6 -7 -10 -15z"/>
<path d="M5729 6545 c-20 -8 -53 -25 -74 -39 -21 -15 -64 -33 -94 -42 -31 -8
-80 -22 -108 -30 -31 -9 -53 -20 -53 -28 0 -22 66 -74 107 -85 49 -14 96 -14
166 0 65 13 68 31 4 23 -49 -7 -65 6 -72 54 -4 33 19 52 39 32 8 -8 6 -15 -8
-25 -20 -15 -16 -45 7 -45 24 0 40 28 35 60 -4 28 -1 32 38 49 23 11 52 29 63
40 19 19 20 24 7 36 -8 8 -16 14 -18 14 -2 -1 -19 -7 -39 -14z m-139 -144 c0
-15 9 -40 21 -55 l20 -26 -48 0 c-56 0 -118 26 -152 63 -25 28 -24 30 24 40
11 3 46 5 78 6 56 1 57 1 57 -28z"/>
<path d="M3216 6465 c-9 -26 -7 -32 5 -12 6 10 9 21 6 23 -2 3 -7 -2 -11 -11z"/>
<path d="M2676 6395 c-9 -14 -13 -25 -8 -25 10 0 42 33 42 43 0 15 -19 5 -34
-18z"/>
<path d="M2807 6202 c-19 -20 -47 -85 -46 -104 0 -7 7 4 14 25 8 21 24 51 35
67 24 33 22 40 -3 12z"/>
<path d="M1866 6124 c-3 -9 -6 -29 -6 -46 0 -35 15 -34 43 5 17 22 18 29 7 42
-16 19 -36 19 -44 -1z"/>
<path d="M2659 6063 l-34 -38 38 34 c20 19 37 36 37 38 0 8 -8 0 -41 -34z"/>
<path d="M1998 6050 c-31 -71 -28 -198 3 -149 18 29 31 122 21 153 l-9 31 -15
-35z"/>
<path d="M5935 6064 c-40 -14 -40 -14 -5 -9 19 3 39 10 44 15 12 12 12 12 -39
-6z"/>
<path d="M2599 6003 c-13 -16 -12 -17 4 -4 9 7 17 15 17 17 0 8 -8 3 -21 -13z"/>
<path d="M5810 6014 c0 -13 89 -43 125 -43 l40 1 -45 8 c-25 4 -62 15 -82 23
-21 9 -38 14 -38 11z"/>
<path d="M3931 5834 c0 -11 3 -14 6 -6 3 7 2 16 -1 19 -3 4 -6 -2 -5 -13z"/>
<path d="M3939 5763 c-8 -70 -30 -99 -94 -128 -30 -13 -55 -26 -55 -29 0 -3
25 5 56 19 31 14 58 25 59 25 2 0 13 16 25 35 16 25 20 47 18 82 l-3 48 -6
-52z"/>
<path d="M3915 5619 c-4 -6 -5 -12 -2 -15 2 -3 7 2 10 11 7 17 1 20 -8 4z"/>
<path d="M3902 5565 c0 -16 2 -22 5 -12 2 9 2 23 0 30 -3 6 -5 -1 -5 -18z"/>
<path d="M5309 4767 c3 -66 5 -69 13 -38 5 19 7 49 3 68 -11 59 -20 42 -16
-30z"/>
<path d="M4881 4524 c0 -11 3 -14 6 -6 3 7 2 16 -1 19 -3 4 -6 -2 -5 -13z"/>
<path d="M4892 4459 c3 -26 15 -60 28 -77 25 -34 32 -33 85 13 l30 27 -36 -21
c-43 -25 -59 -26 -59 -7 0 8 -12 37 -26 63 l-26 48 4 -46z"/>
<path d="M4895 4139 c-8 -262 2 -402 32 -445 12 -16 22 -38 24 -49 3 -12 16
-24 37 -30 34 -10 40 -23 20 -44 -11 -11 -9 -12 7 -7 71 20 223 56 240 56 18
0 18 1 -3 16 -17 12 -35 13 -83 8 -72 -8 -73 4 -4 30 31 12 50 28 61 48 8 16
13 32 11 34 -2 3 -26 -4 -53 -14 -124 -48 -160 -31 -52 24 l73 38 -34 10 c-18
5 -36 19 -41 30 -4 12 -17 47 -30 78 -12 32 -19 62 -15 68 4 6 29 -10 63 -39
31 -27 58 -48 60 -46 2 2 -21 33 -52 69 -30 36 -79 101 -108 146 -28 44 -56
80 -61 80 -4 0 -25 37 -46 81 l-39 82 -7 -224z"/>
<path d="M7165 4237 c-243 -124 -263 -138 -487 -333 -73 -63 -149 -123 -168
-132 -40 -18 -130 -89 -130 -103 0 -5 18 -9 39 -9 91 0 283 -50 377 -98 l42
-21 127 190 c172 257 229 333 310 408 66 61 168 121 210 121 l20 1 -20 15
c-27 21 -103 54 -123 54 -9 -1 -98 -42 -197 -93z"/>
<path d="M7637 4106 c-60 -36 -163 -119 -185 -148 -7 -10 -19 -18 -25 -18 -7
0 -18 -13 -25 -29 -7 -16 -41 -54 -75 -86 -34 -32 -82 -77 -107 -100 -25 -23
-94 -86 -155 -140 -60 -54 -116 -103 -123 -110 -10 -9 -8 -21 9 -60 16 -36 22
-71 23 -125 l1 -75 46 22 c81 39 157 54 269 54 119 0 194 -16 287 -62 118 -57
226 -166 275 -276 22 -50 19 -92 -12 -153 -18 -36 -105 -123 -174 -175 l-38
-29 4 -71 c3 -43 18 -107 38 -165 29 -83 65 -277 54 -289 -2 -2 -21 1 -41 7
-20 6 -38 10 -39 9 -1 -1 7 -49 17 -107 36 -205 24 -276 -65 -390 -68 -87 -67
-84 -55 -227 6 -70 12 -138 15 -150 6 -29 49 -51 117 -59 54 -6 54 -6 60 23 3
15 16 41 28 57 20 25 27 28 69 24 65 -6 162 -54 289 -141 58 -41 122 -82 141
-92 49 -25 141 -34 245 -23 50 5 106 10 125 12 19 1 41 5 47 9 14 9 7 155 -8
173 -5 6 -37 22 -72 34 -76 27 -225 100 -289 141 -76 49 -134 154 -157 285
-19 107 -33 308 -26 371 7 66 0 96 -17 72 -6 -10 -7 -7 -3 9 8 27 6 27 -45 1
-22 -11 -57 -23 -78 -26 -38 -5 -39 -4 -55 34 -48 122 -66 306 -55 573 5 107
6 240 2 295 -7 131 -32 315 -44 330 -5 6 -7 21 -3 33 3 14 1 22 -7 22 -8 0
-10 9 -6 25 8 30 -1 32 -28 6 -12 -11 -32 -21 -46 -23 -31 -4 -35 25 -8 61 10
13 18 34 18 46 0 22 -2 21 -80 -18 -83 -41 -149 -52 -171 -30 -20 20 6 57 101
154 66 66 103 94 167 126 44 23 100 44 122 48 43 7 54 20 24 28 -10 2 -3 3 15
1 29 -3 32 0 32 27 0 21 -5 29 -18 29 -14 0 -23 15 -36 58 -26 82 -74 168
-113 202 -45 40 -84 39 -156 -4z m163 -71 c0 -50 -12 -73 -23 -42 -3 8 -11 6
-27 -8 l-22 -20 7 35 c11 50 33 90 50 90 11 0 15 -13 15 -55z m-104 -15 c-14
-22 -33 -40 -41 -40 -22 0 -19 6 22 50 46 48 55 44 19 -10z m74 -67 c0 -12
-33 -43 -47 -43 -22 0 -15 30 10 40 28 11 37 12 37 3z m-142 -33 c-25 -34 -30
-37 -21 -12 8 23 24 42 35 42 5 0 -1 -13 -14 -30z"/>
<path d="M7329 3863 c-13 -16 -12 -17 4 -4 9 7 17 15 17 17 0 8 -8 3 -21 -13z"/>
<path d="M4922 3605 c0 -48 11 -76 26 -66 10 6 9 17 -7 52 -19 42 -20 42 -19
14z"/>
<path d="M5935 3469 c-390 -31 -818 -135 -1037 -251 -62 -33 -77 -54 -54 -76
13 -13 23 -13 83 2 115 30 110 30 118 6 14 -45 126 -198 188 -258 65 -61 151
-112 194 -112 12 0 50 -8 85 -17 45 -12 102 -17 203 -16 120 0 154 4 239 27
109 29 326 116 568 225 86 39 161 71 167 71 18 0 13 -26 -23 -135 -68 -202
-201 -437 -314 -556 -113 -120 -242 -179 -388 -179 -133 0 -260 33 -407 106
-49 24 -93 44 -98 44 -5 0 -9 -9 -9 -19 0 -26 87 -103 152 -134 53 -24 179
-63 228 -69 24 -3 25 -6 30 -88 l5 -85 60 -3 c33 -2 74 -1 91 3 l31 5 -5 80
-5 80 31 0 c16 0 59 9 95 20 186 58 392 281 524 570 48 105 119 321 133 408
11 64 10 79 -5 117 -66 174 -428 271 -880 234z m490 -53 c151 -24 219 -50 275
-105 84 -81 91 -183 25 -376 -113 -331 -236 -530 -402 -653 -173 -127 -316
-158 -504 -111 -150 38 -347 125 -357 158 -3 10 11 5 39 -13 145 -90 316 -146
448 -146 192 0 337 71 467 228 110 134 299 555 318 711 13 105 -64 205 -188
244 -28 9 -105 26 -171 38 -329 58 -751 3 -1353 -177 -148 -44 -195 -51 -135
-21 65 34 222 81 467 142 224 55 327 74 526 99 79 9 449 -3 545 -18z m-2 -62
c87 -14 184 -51 206 -78 22 -26 -62 -79 -270 -169 -59 -26 -127 -52 -152 -59
-44 -11 -48 -11 -71 11 l-25 23 -25 -28 c-119 -134 -132 -139 -130 -55 1 28 1
51 0 51 -2 0 -19 -24 -39 -53 -72 -104 -139 -148 -122 -79 5 22 4 24 -9 13 -9
-7 -23 -11 -31 -7 -17 6 -21 56 -5 56 6 0 10 -5 10 -10 0 -21 68 64 74 92 11
56 5 133 -14 188 -24 67 -24 70 -5 70 19 0 43 -47 51 -101 6 -38 8 -41 17 -22
7 16 5 33 -7 62 -15 40 -13 76 5 65 5 -3 9 2 9 10 0 8 9 20 19 26 26 13 121
13 121 0 0 -6 -30 -52 -66 -103 -36 -50 -72 -105 -80 -122 -17 -36 -13 -30 63
79 48 70 76 96 89 84 3 -4 -12 -28 -35 -54 -80 -91 -133 -186 -155 -277 -12
-52 13 -19 65 86 74 146 127 227 150 227 24 0 24 -5 -2 -46 -35 -57 -14 -38
26 24 21 31 49 72 62 90 l25 34 82 -7 c44 -3 121 -13 169 -21z m-633 -3 c0
-16 -100 -101 -184 -156 -86 -56 -166 -96 -220 -109 -22 -5 -26 -10 -17 -19
14 -14 14 -37 1 -37 -6 0 -21 11 -34 24 l-22 25 -17 -29 c-16 -26 -84 -77 -91
-69 -2 2 -11 19 -20 37 -9 18 -24 36 -32 39 -7 3 -14 10 -14 16 0 6 -9 20 -20
32 -11 11 -23 35 -26 53 -6 30 -5 32 24 32 25 0 29 -3 25 -19 -3 -13 2 -23 17
-31 21 -11 21 -12 3 -32 -18 -20 -18 -21 7 -13 85 26 375 162 421 197 35 28
73 46 109 54 69 15 90 16 90 5z m-185 -37 c-40 -31 -181 -95 -220 -100 l-40
-5 28 16 c45 26 24 29 -32 4 -29 -12 -54 -19 -57 -16 -12 11 132 70 226 93
114 27 121 28 95 8z m175 -123 c0 -10 -17 -30 -38 -44 -20 -15 -46 -41 -57
-59 l-19 -32 51 37 c55 40 83 35 42 -9 -24 -26 -20 -31 11 -12 24 16 42 1 34
-28 -9 -34 -67 -54 -108 -38 -20 8 -52 61 -60 100 -7 30 -4 34 51 68 64 40 93
46 93 17z"/>
<path d="M6123 3242 c-53 -80 -84 -157 -61 -150 26 9 68 77 82 132 9 33 15 61
13 62 -1 2 -17 -18 -34 -44z"/>
<path d="M6020 3170 c-6 -11 -8 -20 -6 -20 3 0 10 9 16 20 6 11 8 20 6 20 -3
0 -10 -9 -16 -20z"/>
<path d="M2960 3415 c-14 -8 -20 -14 -14 -15 5 0 19 7 30 15 24 18 16 19 -16
0z"/>
<path d="M2880 3380 c-8 -5 -10 -10 -5 -10 6 0 17 5 25 10 8 5 11 10 5 10 -5
0 -17 -5 -25 -10z"/>
<path d="M2688 3313 c7 -3 16 -2 19 1 4 3 -2 6 -13 5 -11 0 -14 -3 -6 -6z"/>
<path d="M8097 2644 c-4 -4 -8 -32 -8 -63 -1 -50 -15 -131 -18 -107 -2 14 -61
-45 -61 -60 0 -7 19 -19 43 -25 118 -34 99 -84 -58 -155 l-50 -23 67 0 c57 -1
69 -4 82 -23 9 -12 16 -31 16 -40 0 -21 24 -32 130 -59 105 -27 238 -39 272
-25 30 12 86 78 94 112 9 36 -22 70 -104 115 -146 79 -227 151 -392 352 -3 4
-9 4 -13 1z m-14 -234 c3 -11 1 -18 -4 -14 -5 3 -9 12 -9 20 0 20 7 17 13 -6z"/>
<path d="M5845 1855 c0 -37 4 -65 10 -65 6 0 10 28 10 65 0 37 -4 65 -10 65
-6 0 -10 -28 -10 -65z"/>
<path d="M5625 1853 c-16 -2 -41 -8 -55 -13 -14 -5 -133 -17 -265 -25 -241
-16 -348 -25 -342 -31 1 -2 119 4 262 11 143 8 303 15 355 15 130 0 170 8 170
31 0 16 -7 19 -47 18 -27 -1 -61 -4 -78 -6z"/>
<path d="M6180 1850 c-22 -13 -7 -45 23 -48 37 -4 46 -30 19 -53 -19 -15 -20
-18 -5 -23 26 -10 34 7 31 64 -3 48 -6 54 -29 61 -15 3 -32 3 -39 -1z"/>
<path d="M6120 1730 c-8 -5 -12 -12 -8 -15 8 -8 58 5 58 16 0 12 -31 11 -50
-1z"/>
<path d="M5885 1711 c-17 -3 -52 -21 -78 -40 -42 -31 -47 -39 -47 -73 0 -41 5
-45 29 -24 9 7 26 17 39 20 l22 7 0 -210 0 -211 -29 0 c-20 0 -36 9 -49 25
-11 14 -23 22 -26 17 -2 -4 -6 -71 -7 -148 -1 -106 1 -138 11 -136 61 14 108
-101 59 -146 l-20 -20 33 -11 c18 -7 71 -14 118 -17 l85 -5 -26 23 c-21 18
-27 32 -27 63 -1 47 4 57 35 74 32 16 72 14 138 -9 32 -11 60 -20 62 -20 1 0
3 23 3 50 0 36 4 52 15 56 8 4 68 2 133 -4 64 -6 119 -8 122 -5 3 2 -6 14 -20
25 -22 18 -35 20 -120 15 -52 -2 -102 -8 -111 -11 -22 -9 -28 18 -30 124 0 47
-4 96 -8 109 l-6 24 -13 -27 c-24 -54 -165 -86 -275 -63 l-37 8 2 221 3 221
55 31 c44 25 54 35 52 54 -4 23 -23 26 -87 13z"/>
<path d="M2019 1177 c-27 -18 -37 -34 -47 -77 -13 -52 -12 -56 19 -137 27 -71
35 -83 55 -83 33 0 98 -67 116 -120 9 -25 26 -110 38 -190 31 -197 34 -204
117 -243 68 -32 69 -32 223 -32 85 0 172 4 193 8 32 7 37 11 37 37 0 47 -10
59 -71 90 -33 16 -75 41 -95 57 -30 22 -48 28 -100 30 -118 4 -185 53 -218
158 -9 28 -27 111 -41 186 -30 165 -56 235 -107 294 -45 52 -69 56 -119 22z"/>
<path d="M7814 1185 c11 -8 27 -15 35 -15 10 1 7 6 -9 15 -33 19 -50 18 -26 0z"/>
<path d="M6980 1050 c8 -5 20 -10 25 -10 6 0 3 5 -5 10 -8 5 -19 10 -25 10 -5
0 -3 -5 5 -10z"/>
<path d="M7030 1030 c8 -5 20 -10 25 -10 6 0 3 5 -5 10 -8 5 -19 10 -25 10 -5
0 -3 -5 5 -10z"/>
<path d="M7080 1010 c8 -5 20 -10 25 -10 6 0 3 5 -5 10 -8 5 -19 10 -25 10 -5
0 -3 -5 5 -10z"/>
<path d="M8678 1003 c7 -3 16 -2 19 1 4 3 -2 6 -13 5 -11 0 -14 -3 -6 -6z"/>
<path d="M7130 990 c8 -5 20 -10 25 -10 6 0 3 5 -5 10 -8 5 -19 10 -25 10 -5
0 -3 -5 5 -10z"/>
<path d="M7180 970 c8 -5 20 -10 25 -10 6 0 3 5 -5 10 -8 5 -19 10 -25 10 -5
0 -3 -5 5 -10z"/>
<path d="M7230 950 c8 -5 20 -10 25 -10 6 0 3 5 -5 10 -8 5 -19 10 -25 10 -5
0 -3 -5 5 -10z"/>
<path d="M5550 930 c-52 -4 -124 -15 -160 -23 -36 -9 -101 -21 -145 -28 -114
-18 -79 -22 53 -6 73 9 115 10 121 4 7 -7 35 -3 83 11 40 12 105 28 143 36 79
15 53 17 -95 6z"/>
<path d="M7270 937 c0 -7 231 -99 236 -94 2 2 -44 23 -103 46 -60 24 -114 45
-120 48 -7 3 -13 3 -13 0z"/>
<path d="M6234 869 c27 -16 137 -59 153 -59 7 0 13 7 13 16 0 15 9 16 68 11
89 -7 293 -50 362 -76 62 -23 217 -110 270 -151 45 -34 65 -46 57 -33 -13 21
-156 113 -258 165 -125 65 -183 81 -389 107 -228 29 -299 34 -276 20z"/>
<path d="M5138 853 c7 -3 16 -2 19 1 4 3 -2 6 -13 5 -11 0 -14 -3 -6 -6z"/>
<path d="M5660 801 c-143 -50 -398 -156 -414 -172 -6 -5 35 9 90 32 54 22 180
66 279 96 177 56 205 67 205 84 0 15 -19 10 -160 -40z"/>
<path d="M5980 813 c0 -4 48 -30 106 -57 120 -56 234 -128 282 -178 17 -19 48
-63 67 -98 41 -77 45 -73 9 7 -44 100 -117 159 -334 270 -140 71 -130 66 -130
56z"/>
<path d="M1512 798 c-17 -21 -52 -116 -52 -142 0 -13 14 -53 31 -90 19 -41 42
-123 62 -216 29 -142 32 -150 54 -150 l23 0 0 160 c0 184 2 187 76 118 54 -50
123 -135 193 -240 29 -43 62 -83 74 -90 25 -15 285 -15 372 -1 l50 8 3 42 c3
39 0 44 -40 73 -23 17 -67 45 -97 62 l-53 31 -32 -19 c-42 -25 -151 -26 -188
-2 -15 10 -57 68 -94 130 -80 133 -178 237 -274 291 -86 47 -95 50 -108 35z"/>
<path d="M6445 780 c-3 -5 8 -16 24 -25 33 -17 51 -5 31 20 -14 17 -46 20 -55
5z"/>
<path d="M5009 776 c-2 -3 -17 -7 -33 -10 -44 -8 -46 -20 -2 -13 36 6 75 27
50 27 -6 0 -13 -2 -15 -4z"/>
<path d="M6675 744 c-37 -16 -137 -18 -152 -3 -8 8 -13 8 -17 0 -11 -18 45
-60 74 -56 14 2 45 7 69 10 46 6 101 30 101 44 0 15 -44 18 -75 5z"/>
<path d="M4844 716 c-1 -12 -5 -38 -9 -58 -8 -38 -7 -38 24 -38 32 0 32 1 25
33 -4 17 -7 42 -6 53 1 13 -5 24 -16 26 -12 3 -17 -1 -18 -16z"/>
<path d="M4703 634 c-9 -24 27 -50 88 -63 78 -17 117 -14 129 9 13 25 10 26
-90 34 -41 4 -85 13 -97 22 -21 13 -24 13 -30 -2z"/>
<path d="M5184 591 c-21 -15 -48 -39 -59 -52 -11 -13 -2 -8 20 11 22 19 51 43
65 52 14 9 22 17 19 17 -3 1 -24 -12 -45 -28z"/>
<path d="M7280 544 c-31 -8 -37 -13 -20 -13 14 0 39 6 55 14 37 17 24 16 -35
-1z"/>
<path d="M7153 503 c-1 -10 -4 -34 -8 -54 -7 -34 -5 -37 21 -42 36 -7 37 -6
24 29 -6 15 -9 38 -6 50 4 14 0 24 -10 28 -21 8 -20 9 -21 -11z"/>
<path d="M7400 419 c-37 -28 -130 -43 -191 -30 -28 6 -69 11 -92 11 -23 0 -55
7 -70 15 -25 13 -29 12 -34 0 -3 -9 0 -22 7 -30 24 -28 84 -40 210 -40 105 0
131 3 165 20 30 15 41 27 43 48 4 32 -4 33 -38 6z"/>
<path d="M4990 354 c-17 -10 -20 -14 -8 -14 23 0 48 11 48 21 0 12 -9 10 -40
-7z"/>
<path d="M4843 303 c-1 -10 -4 -35 -8 -55 -8 -37 -7 -38 24 -38 29 0 31 2 25
28 -4 15 -8 29 -10 31 -1 1 1 14 6 27 8 21 7 24 -13 24 -15 0 -23 -6 -24 -17z"/>
<path d="M5103 231 c-20 -32 -87 -43 -212 -36 -64 4 -130 13 -148 20 -17 7
-34 11 -37 7 -16 -16 -1 -35 42 -54 39 -18 67 -21 167 -22 101 0 127 4 168 22
38 17 47 26 47 46 0 32 -13 40 -27 17z"/>
<path d="M6670 213 l-35 -14 34 6 c34 5 49 12 40 18 -2 2 -20 -3 -39 -10z"/>
<path d="M6517 148 c-3 -18 -8 -43 -12 -55 -6 -19 -3 -22 27 -26 23 -3 18 -4
-20 -5 -29 -1 -69 5 -89 13 -45 19 -45 19 -41 -7 4 -30 38 -45 133 -59 57 -9
98 -9 155 -1 94 13 129 28 136 58 9 37 -5 49 -30 25 -31 -29 -70 -41 -137 -41
-60 0 -60 0 -75 37 -9 20 -13 49 -10 65 4 23 2 28 -13 28 -14 0 -20 -9 -24
-32z"/>
</g>
</svg>
