<svg xmlns="http://www.w3.org/2000/svg" viewBox="0 0 720.62 642.91"><defs><style>.a,.b,.t,.x{fill:#fff}.b,.e{opacity:.5}.c{opacity:.7}.d{fill:#97cef1}.e,.m{fill:#76c0e8}.f{fill:#d0ddef}.g{fill:#dae8f7}.h{fill:#ededed}.i{fill:#99aabc}.j{fill:#102337}.k{fill:#57b4e5}.l{fill:#bcdff7}.n{fill:#b7dff8}.o{fill:#1499d7}.q{fill:#ffa400}.s{fill:#bed0e5}.t,.z{opacity:.28}.u{opacity:.29}.v{fill:#575756}.ab,.x{stroke:#5eb3e4;stroke-miterlimit:10;stroke-width:.69px}.z{fill:#dadada}.ab{fill:none}.af{fill:#f6f6f6}.aj{fill:#1399d7}</style><linearGradient id="a" x1="185.45" x2="250.52" y1="301.31" y2="414" gradientUnits="userSpaceOnUse"><stop offset=".3" stop-color="#76c0e8"/><stop offset=".37" stop-color="#66bae6"/><stop offset=".45" stop-color="#5bb5e5"/><stop offset=".54" stop-color="#57b4e5"/></linearGradient><linearGradient id="b" x1="248.14" x2="323.04" y1="89.4" y2="89.4" gradientUnits="userSpaceOnUse"><stop offset=".17" stop-color="#fff"/><stop offset=".27" stop-color="#fff"/><stop offset=".84" stop-color="#fff"/></linearGradient><linearGradient id="c" x1="251.7" x2="269.39" y1="398.02" y2="398.02" gradientUnits="userSpaceOnUse"><stop offset=".17" stop-color="#f6f6f6"/><stop offset="1" stop-color="#dadada"/></linearGradient></defs><path d="M181.36 346.62c-.14 12.76-.44 24.81-1 45.43-.52 19.36 8 42.1 7.66 46.19-1.62 18.58 9.91 38.09 5.73 76.06-3.11 28.29-6.32 35.1-6.32 35.1s.35 84.87.82 91.9q-14 .71-28.11 1-14.68.32-29.36.25c-3.71-20.64-7.34-124.38-9.13-144-.24-2.61-3.82-5.36-4.07-8.22l-2 1c-1.62 10.3-8.15 32-11.59 56.74-.58 4.15-1.14 89.28-1.68 94.2q-11.24-.24-22.47-.58c-11.51-.36-23 .88-34.55.36.12-5.94.37-94.07.79-100.22 1.68-24.2 2.79-22.85 4.19-39.71 1.23-14.92 6.69-34.28 6.69-34.28A72.3 72.3 0 0 0 62 443c.28-13.87 4.19-7.63 4.19-7.63l.63-.55s-8.44-4.78-9.07-13.84c-1.44-20.61 4.18-58.27 4.18-75.83 0-12.48 3.93-37.1 0-44.44-12-22.37-18.17-48.07-13.28-51 56.33-33.39 76.84-29.63 118-15.49 17.15 5.89 22.67 8.83 27.17 13.74.9-.07 1.45.44 1.53 1.71 4.25 4.83 3.31 9 .72 13.76 1.54 37.47-5.07 58.41-14.71 83.19z" class="a"/><path d="M181.36 346.62c-.14 12.76-.44 24.81-1 45.43-.52 19.36 8 42.1 7.66 46.19-1.62 18.58 9.91 38.09 5.73 76.06-3.11 28.29-6.32 35.1-6.32 35.1s.35 84.87.82 91.9q-14 .71-28.11 1-14.68.32-29.36.25c-3.71-20.64-7.34-124.38-9.13-144-.24-2.61-3.82-5.36-4.07-8.22l-2 1c-1.62 10.3-8.15 32-11.59 56.74-.58 4.15-1.14 89.28-1.68 94.2q-11.24-.24-22.47-.58c-11.51-.36-23 .88-34.55.36.12-5.94.37-94.07.79-100.22 1.68-24.2 2.79-22.85 4.19-39.71 1.23-14.92 6.69-34.28 6.69-34.28A72.3 72.3 0 0 0 62 443c.28-13.87 4.19-7.63 4.19-7.63l.63-.55s-8.44-4.78-9.07-13.84c-1.44-20.61 4.18-58.27 4.18-75.83 0-12.48 3.93-37.1 0-44.44-12-22.37-18.17-48.07-13.28-51 56.33-33.39 76.84-29.63 118-15.49 17.15 5.89 22.67 8.83 27.17 13.74.9-.07 1.45.44 1.53 1.71 4.25 4.83 3.31 9 .72 13.76 1.54 37.47-5.07 58.41-14.71 83.19z" class="b"/><path d="M4.34 326.61c6.33-20.73 28-60 28-60 6.33-12 13.84-23.39 26-27.7 6.13-2.18 12.22-1.66 16.27 1.4s6.2 8.69 5.52 14.69c-.61 5.45-3.19 10.32-5.55 14.45-6.55 11.46-14.52 22.21-22.24 32.6a104.78 104.78 0 0 0-9.48 16.44 111.52 111.52 0 0 1-9.12 16c.2.11 2.69 5.64 3.32 6.61 8.08 8.64 23.13 26.76 32.75 38a13.28 13.28 0 0 0 4.37 2.1c3.29.86 6.87.22 10.08 1.32s8.52 7.85 7.75 10.09a2.91 2.91 0 0 1-.85 1l-6.1.89c-1.4-2.28.69-3.46 0-4.48a2.77 2.77 0 0 0-1 3.24 5.82 5.82 0 0 0 1.59 2.32c.19.19.39.37.58.54a4.31 4.31 0 0 0 .41.25l.2.11.53.29a97.74 97.74 0 0 0 11 5.24c3.35 1.09 1.18 4.57.88 5.25-.78 1.72-2.3 1.83-4.1 1.34.63 1.23-1.07 4.07-1.42 4.36a3.89 3.89 0 0 1-3.32.45c-.32.56-2.23 3.67-5.12 2.86a10.55 10.55 0 0 1-2.43-1.27c.06.67-1.61 1.74-3.53 1.43-3.11-.43-12.26-8.43-13.84-11.2-3.26-5.59-2.32-6.7-3.81-9.05-.9-1.42-2.07-3.95-3.35-5C0 341.45.53 340.28.71 339.57c-2.06-2.37.72-12.36 3.63-12.96zM135.79 442.11s.53-.82 5.06-1.15 13.68-9.18 14.48-11.35c.95-2.59.17-3.85-1-4.45-.4-.12-.81-.26-1.22-.4a8.94 8.94 0 0 0-2.7 0l.37-.24a9.88 9.88 0 0 0-3.19 1.53l-5.84 3.74a9.7 9.7 0 0 1-4.1 1.79 3.31 3.31 0 0 1-3.59-2.09c8-3.9 11.69-13.49 19.3-18.06 3.23-1.95 7-2.86 10.38-4.48a52.12 52.12 0 0 0 8.14-5.18c3.59-2.62 25.94-30.12 35.3-41.39 5.57-6.71 12.31-14.82 21.21-19.48L204 308.14c-7.76-10.41-15.78-21.17-22.4-32.68-2.61-4.56-5.12-9.52-5.75-14.95-.74-6.46 1.54-12.56 6-15.91s10.94-3.94 17.5-1.63c13 4.6 29.14 28.63 29.14 28.63a295.55 295.55 0 0 1 30.64 77c.43 1.77 1.08 4.45.12 7a7.58 7.58 0 0 1-4.76 4.53q-.39.13-.81.24c-.32.76-.68 1.52-1.08 2.29-6.29 11.85-17.52 19.51-28.38 26.91-2 1.34-3.91 2.67-5.83 4-4.9 3.46-23.26 17.06-23.55 16.74-3.63 3.15-5.18 4.35-9.07 7.73a9.38 9.38 0 0 0-2.29 2.54c-1.82 3.42-3.91 26.81-12.13 29.8-4.88 1.77-14.28 8.49-17.35 7.81-2.4-.54-3.42-3.52-3.42-3.52s-6.28 1.51-6.47-2.59c0 0-5.81.32-5.15-3.32a4.12 4.12 0 0 1 1.07-1.56c-.73-.1-2.79-.13-3.64-.34-4.99-1.13-.6-4.75-.6-4.75z" class="a"/><path d="M51.28 315.3a240.42 240.42 0 0 1-22.66-18.12c-3.75-3.37-7.41-6.87-11-10.39 12-27.15 24.48-63.52 60.72-63.87 10.26-.1-16.17 52.48-12.88 64.39-.39.16-7.32 13.43-14.18 27.99z" class="a"/><path d="M59.5 454.88c.31-15.77 4.64-8.67 4.64-8.67l.7-.62s-9.35-5.44-10.05-15.74c-1.6-23.44 4.64-66.27 4.64-86.23 0-14.19 4.35-42.18 0-50.53l-.24-.46c-1-14.26-3.71-28.36-4.11-42.69-.21-7.65-.19-14.76 2.05-22.09 53.28-30 75.92-25.28 118.34-10.32 19 6.7 21.33 7.51 22.13 28.43 1.79 42.54.46 71.17-5.73 99.31-.16 14.51-.49 28.22-1.1 51.66-.57 22 8.88 47.87 8.48 52.52-1 11.47 2.35 23.26 4.85 38.54H52.66c.76-3.07 1.28-5 1.28-5a84 84 0 0 0 5.56-28.11z" class="a"/><path d="M201 229.67c6 7.4 21.69 31 36.36 54.17-10.62 9-21.88 17.42-34 24.11-4.88-6.49-9.06-11.95-11.68-15.07-9.78-11.64-21.41-25-22.25-41.17-1.56-29.39 24.01-31.37 31.57-22.04zM97.71 164.29c15-2.34 29.86-5.54 44.57-9.17-1 12.21-2.05 24.94-2.05 24.94s-2 17.84-1.78 22.94a15.48 15.48 0 0 0 .55 3.19c3.66 2.45 5.92 5.78 5.92 9.45 0 7.53-9.48 13.63-21.17 13.63s-21.16-6.1-21.16-13.63c0-3.53 2.09-6.75 5.52-9.17a36.07 36.07 0 0 0-.76-9.81s-17.71-5.37-20.17-9c-3.4-5-4.12-11-4.16-21.25 4.9-.65 9.8-1.36 14.69-2.12z" class="a"/><path d="M136.57 225.54a14.34 14.34 0 0 0 4-13.31c-.35-2-1-3.68-1-5.64 3.33 2.41 5.36 5.58 5.36 9 0 5.19-4.5 9.7-11.13 12a18.1 18.1 0 0 0 2.77-2.05zM107.35 196.66s-15.2-4.61-19.38-8.14q8.09-3 16.13-6.11c10.91-4.23 22.37-8.42 33.35-13.49-1.37 3-3.08 5.92-4.75 8.89s-3.57 8.17-7 9.54c-2.79 1.12-5.16 3.34-5.06 6.63a8.93 8.93 0 0 1-3.82 7.33c-1 .57-2.29.68-3.29 1.31-1.71 1.06-2.32 2.66-3.55 4.08l-.18.28a5.7 5.7 0 0 1-1.17.18c-.55 0-1.13.11-1.7.19a14.35 14.35 0 0 1 1.14-.88 36.07 36.07 0 0 0-.72-9.81z" class="a"/><path d="M97.27 195.7c-3.42-1-8.6-5.52-10.22-8-4.36-6.69-4.31-15-4-32.63s-.15-18.61-.15-18.61-.62-16.63 26.92-18.41 33.9 23.19 33.9 27.78c0 1.58-.42-4.85-1 2.34 0 0 4.54-1.13 4.86 4.24.7 11.51-8.12 13.27-8.12 13.27.54 10.59-10.47 31-28.24 31-9.82-.02-10.54.05-13.95-.98z" class="a"/><path d="M83.07 147.36s-5.86-4.05-7.14-6.53-.37-5.92 1.84-6.15a48.79 48.79 0 0 0 5.08-12.83c1.79-7.48 2-20.51 16-18.36a37.31 37.31 0 0 1 21.57 11s3.66 2.68 7.19 1.8a43.52 43.52 0 0 1 12.27-1.29c4.76.41 8.22 3 9.31 5.1 1.77 3.41.89 12.65.89 12.65-1.16.49-2.44 14-2.44 14l-3.78 13.79s-8.48-.42-10.82-3.6-3.24-7.29-2.72-9.39 5.48-12.07 5.48-12.07-3.65 1.62-11.53 1.17a92.3 92.3 0 0 1-16.42-2.8s3.57 4 7.13 4.19-7.45 3.09-16.23 2.38a159 159 0 0 1-15.87-2.1z" class="a"/><path d="M136.22 161.9s-3.33-7.16.52-11.11c4.5-4.62 9.83-4.34 10.67-.56 1.58 7.07-2 11.35-2 11.35s-3.31 4.65-7.05 3.67c-2.47-.64-2.27-3.24-2.32-4.65zM163.1 244.56c0-.53-6.61-30.39-6.61-30.39l-11.8-6.07-5.13-1.51s-2.45 8.49-10.9 9.42-16.12-.79-18.9-2-2.79-6.68-2.79-6.68l-13.5 3.79L89 250zM198.09 455.67c-21 11.2-45.43 15.25-69.21 13.83s-47-8.11-69-17.33l-1.06 7.32a3 3 0 0 0 .19 2.06 3 3 0 0 0 1.61 1l30.18 10.89c6.61 2.39 13.23 4.78 20 6.51a109.39 109.39 0 0 0 82.06-12c1.92-1.15 3.88-2.43 5-4.38a7.17 7.17 0 0 0-.42-7.61" class="a"/><path d="M138 212.46a21.62 21.62 0 0 1-10.93 4c-24.11 1.55-21.13-8.51-21.29-8.76l1.15-.33s0 7.93 19.6 6.62a18.09 18.09 0 0 0 13-7.38l2.09.61a13.73 13.73 0 0 1-3.62 5.24zM149.55 135.63s-22.64 6.51-47.54 5.83S51.1 132 64.39 128.91c0 0 9.68-2.65 16.82-4.24 3.36 5 9.86 6.71 15.8 7.85 17.3 3.34 52.54 3.11 52.54 3.11" class="a"/><path d="M81.21 124.67c3.36 5 9.86 6.71 15.8 7.85 17.3 3.34 52.54 3.11 52.54 3.11 1.35-11.87 4.2-20.42-11.5-37.64-7.1-7.78-23.74-9.6-30.05-8.12s-20.31 5.84-23.46 20.53c-.55 2.54-3.33 14.27-3.33 14.27M59.5 454.88c.31-15.77 4.64-8.67 4.64-8.67l.7-.62s-9.35-5.44-10.05-15.74c-.76-11.23.27-26.89 1.55-42.36 4.75-8.39 12.74-27.68 15.68-65.68 3.44-44.61-2.49-85.16-4.94-99.34 3.78-2 7.39-3.7 10.87-5.28C80.39 229 88.45 269 89 285.81h80.35s3.6-52.65 6.14-68.28c4.76 1.68 8.47 3 11.38 4.33-1.31 18.22-5.51 79-5.14 105.18.29 20.95 5.79 45.33 9.34 59-.09 3.41-.18 7-.28 10.92-.57 22 8.88 47.87 8.48 52.52-1 11.47 2.35 23.26 4.85 38.54H52.66c.76-3.07 1.28-5 1.28-5a84 84 0 0 0 5.56-28.14z" class="a"/><path d="M52.66 488c.76-3.07 1.28-5 1.28-5a84 84 0 0 0 5.56-28.15c.31-15.77 4.64-8.67 4.64-8.67l.7-.62s-9.35-5.44-10.05-15.74c-.76-11.23.27-26.89 1.55-42.36C61.06 379.15 69 360 72 322.48c.53 3.11 1.05 6.23 1.53 9.35 1 6.56.69 13.72 1.23 21.23.63 8.74 2.45 17.17 8.06 24.12a28.62 28.62 0 0 0 12.42 9c3.38 1.27 8.71.56 11.64 2.44 1.86 1.19 2.74 4.8 3.67 6.81a30.57 30.57 0 0 0 7.32 10.43c3.38 3 7.56 4.57 11.77 6l1.74.63-1 1.14c-3.92 4.59-8.45 8.88-11.66 14a11.66 11.66 0 0 0-6.58 5.34c-3.19 5.45-1.57 14 4.43 16.91 16.42 8 38.1-.13 50-13 11-11.88 13.52-29.91 14-45.46.28-8.45-.62-16.86-.28-25.32.4-10.14 1.52-20.27.76-30.42a249.19 249.19 0 0 1 2-55.22c-.93 17.8-1.61 35.31-1.45 46.51.29 20.95 5.79 45.33 9.34 59-.09 3.41-.18 7-.28 10.92-.57 22 8.88 47.87 8.48 52.52-1 11.47 2.35 23.26 4.85 38.54zM70.18 220.9c2.66-1.34 5.25-2.57 7.77-3.71 1 5 3.1 15.18 5.16 26.47a88.38 88.38 0 0 0-12.93-22.76z" class="b"/><path d="M87.75 282.65c.26-1.83.43-3.66.56-5.49.23 2.14.41 4.15.53 5.95h-1.18c.03-.17.07-.31.09-.46z" class="a"/><path d="M175.43 217.82v-.29c4.76 1.68 8.47 3 11.38 4.33-.52 7.15-1.48 20.86-2.43 36.46-.24-14.32-2.18-28.6-8.95-40.5z" class="b"/><path d="M206.21 439.05s12.41-3.1 19.19 0 6.59 12 0 11.05l-6.59-1s16.87 5.24 18.42 18.42-16.87-3.68-16.87-3.68l-12.6-15.12s19.19 18.8 16.48 30.63-18-16.09-18-16.09-6.59-19-10.27-19.2-10 2.72-10 2.72l.18-11.44 11.78-20.16 22.68 17.64zM59.2 438.48s28.94 6.2 30.38 9.48-1.16 26.61-1.66 33 0 7.66-5.86 8.62c-8.78 1.42-28.25-8.5-29.87-12.58s-.72-25.89 0-30.83a11.94 11.94 0 0 1 4.81-7.69s19 4.68 22.08 9 1.42 33.61 0 36.85-1 3.12-6.8 2.33-17.26-8.08-17.26-8.08M166.92 460.11s.53-12.11-2.28-16.87a57.7 57.7 0 0 0-7.66-9.57 29.16 29.16 0 0 0 .1 22.72c5.24 12.14 6.1 9.52 6.1 9.52zM180.33 454.47l-4.74-28.81a65.41 65.41 0 0 0-7.67.86c-3.58.67-3.66 3.32-3.66 3.32L171 459z" class="a"/><path d="M194.16 450.19l-5.55-33.17-8.75 1.14-2.3 4.14 5.75 31.61 4.09-1.43-6.06-31.63 6.78 33.2 6.04-3.86z" class="a"/><path d="M200 442s-40 5.46-44.37 11.18-4.64 20-2.37 29.75 2.91 21.26 13.7 18.78 28.9-10 34-12.53 8.45-6.63 8.89-16.32-2.46-27.86-3.85-29.79-6-1.07-6-1.07zM165.83 288.11c1.24 2.72 4.81 1.7 7.3 2a47.46 47.46 0 0 0 6.31 0 5.2 5.2 0 0 0 3.53-.88c1.8-1.54 1.74-4.2 1.28-6.59a40.35 40.35 0 0 0-.5-4.93c-1-3.86-10.38-2.63-15.4-2.74-.78 0-1 .67-.72 1.52.58 1.69-.89 3.78-1.13 5.41-.21 1.32-1.22 4.99-.67 6.21zm5.35-2.79a4.87 4.87 0 0 1-.55-.06c.09-.26.17-.56.25-.87a4.76 4.76 0 0 0 1.22 1zM72.64 286.41c2 2.91 4.61 2.46 7.34 2.44h6.26c1.08 0 2.72.35 3.74-.33 2.58-1.71.67-7.89.28-10.69-.23-1.68-3.47-4.82-3.53-3.13-1.49-1-3.12-1.08-5-1.07-3.27 0-6.55.11-9.82.16-.53 0-.74.24-.74 1 .06 3.77-.64 8.56 1.47 11.62zm2-2.16c-.06-.7-.07-1.44-.06-2.19a5.49 5.49 0 0 0 1.55 2.12 8.35 8.35 0 0 1-1.45.07zm11.4-4.91a6.9 6.9 0 0 0-1-1.24c.66 0 1.08.14 1.12.29a1.1 1.1 0 0 1-.08.95z" class="a"/><path d="M178.92 439.64c-.23-7.05-2.24-30-2.14-33.19 2.06.26 9.82 6.51 11.55 15.79 2.29 12.3-2 19.63-5.88 21.58.91.91.54 2.77-.34 3.68a13.17 13.17 0 0 1-3.13 1.85c-2.09 1.24-2.9 4.13-4.31 6.36-11.06 17.47-1.61 35.26-.62 37.86.76 2 2.13 3.56 2.9 5.53s.68 4.77-.91 5.73-3.68-.72-5-2.47a43 43 0 0 1-7.47-29.18c.47-4.42 3.19-19 12.8-25.91a5.07 5.07 0 0 1 0-4.4 5.61 5.61 0 0 1 3-2.72 4.9 4.9 0 0 0 1.86-1c.52-.52-2.31.49-2.31.49z" class="a"/><path d="M178.56 439.66c-1.38-6.9-4.59-29.63-5.42-32.7-1.93.83-8 9-7.58 18.49.59 12.54 6.44 18.43 10.61 19.25-.68 1.14.11 2.84 1.17 3.47s2.29.61 3.44.92c2.31.63 3.76 3.19 5.63 5 14.69 13.85 9.59 33.69 9.22 36.48-.28 2.13-1.25 4-1.55 6.16s.43 4.8 2.19 5.29 3.4-1.72 4.24-3.77a43.8 43.8 0 0 0 .59-30.31c-1.47-4.15-7.43-17.51-18.3-21.53a5 5 0 0 0-1-4.26 5.23 5.23 0 0 0-3.49-1.81 4.67 4.67 0 0 1-2-.43c-.65-.42 2.25-.25 2.25-.25zM10.11 425.19l104.25-15.05-.73 8.21 9.62 48.95-104.39 6.99-9.94-39.87 1.19-9.23z" class="a"/><path d="M50 405.93l1.62 11.4a7.9 7.9 0 0 0 2.38 4.76 5.85 5.85 0 0 0 4 1.65 5 5 0 0 0 .77-.05l43.35-6.14c3.4-.48 5.86-3.84 5.3-7.83L104.66 398c-.27-1.87-.14-2.55-1.44-3.74s-5-1.57-6.71-1.32l-41.41 5.9a5.75 5.75 0 0 0-4.1 2.85 5.36 5.36 0 0 0-1 4.24zm7.23 10.75l-1.61-11.41a2.67 2.67 0 0 1 .32-1.76 1.37 1.37 0 0 1 .93-.69l42.34-6.14h.14a1.45 1.45 0 0 1 .94.42 2.69 2.69 0 0 1 .8 1.61l1.61 11.4c.17 1.21-.4 2.34-1.25 2.46L58.1 418.7a1.4 1.4 0 0 1-1.09-.4c-.46-.4.26-.98.17-1.62z" class="a"/><path d="M114.36 410.14l43.5-7.06L52.6 416.94l-42.49 8.25 104.25-15.05z" class="a"/><path d="M114.36 410.14l43.5-7.06 2.63 6.34s5.74 48.61 4 50.18-41.25 7.7-41.25 7.7l-9.62-48.95z" class="a"/><path d="M8.94 434.49l-.02-.07 1.19-9.23 104.25-15.05-.73 8.21L8.94 434.49zM114.36 410.14l43.5-7.06 2.63 6.34-46.86 8.93.73-8.21z" class="a"/><path d="M88.76 420.14s1 5.4 2 9.12 1.35 5.22 0 5.23-9.47.7-9.47.7l-4.03-12.89s.16-.79 5.24-2.16 6.26 0 6.26 0zM35.13 428.25s-.85.17-5.08.84l-4.23.68S28.7 440 29.21 441.1s9-.67 9-.67zM4.34 326.61C5.45 323 7 318.77 8.89 314.3c6.59 1.52 13.19 3 19.7 4.64 4.12 1.05 8.25 2.17 12.32 3.44a93 93 0 0 1-7.17 12.11c.2.11 2.69 5.64 3.32 6.61 8.08 8.64 23.13 26.76 32.75 38a13.28 13.28 0 0 0 4.37 2.1c3.29.86 6.87.22 10.08 1.32s8.52 7.85 7.75 10.09a2.91 2.91 0 0 1-.85 1l-6.1.89c-1.4-2.28.69-3.46 0-4.48a2.77 2.77 0 0 0-1 3.24 5.82 5.82 0 0 0 1.59 2.32c.19.19.39.37.58.54a4.31 4.31 0 0 0 .41.25l.2.11.53.29a97.74 97.74 0 0 0 11 5.24c3.35 1.09 1.18 4.57.88 5.25-.78 1.72-2.3 1.83-4.1 1.34.63 1.23-1.07 4.07-1.42 4.36a3.89 3.89 0 0 1-3.32.45c-.32.56-2.23 3.67-5.12 2.86a10.55 10.55 0 0 1-2.43-1.27c.06.67-1.61 1.74-3.53 1.43-3.11-.43-12.26-8.43-13.84-11.2-3.26-5.59-2.32-6.7-3.81-9.05-.9-1.42-2.07-3.95-3.35-5C0 341.45.53 340.28.71 339.57c-2.06-2.37.72-12.36 3.63-12.96zM158.9 485.69s5.43-.43 10.24-.84 11.19-3.51 11.19-3.51a11.43 11.43 0 0 1-.67-5.52c.28-3.58-1.3-3.92-1.3-3.92a25.44 25.44 0 0 1-9.22 3.82A56.18 56.18 0 0 1 158 476zM191.12 478.34a42.12 42.12 0 0 1 8.35-1.54c4.81-.41 6.53-1.33 6.53-1.33a11.4 11.4 0 0 1-.67-5.51c.28-3.59-1.3-3.93-1.3-3.93s.32.86-4.56 1.64a89.28 89.28 0 0 1-9.3.94z" class="a"/><g class="c"><path d="M181.36 346.62c-.14 12.76-.44 24.81-1 45.43-.52 19.36 8 42.1 7.66 46.19-1.62 18.58 9.91 38.09 5.73 76.06-3.11 28.29-6.32 35.1-6.32 35.1s.35 84.87.82 91.9q-14 .71-28.11 1-14.68.32-29.36.25c-3.71-20.64-7.34-124.38-9.13-144-.24-2.61-3.82-5.36-4.07-8.22l-2 1c-1.62 10.3-8.15 32-11.59 56.74-.58 4.15-1.14 89.28-1.68 94.2q-11.24-.24-22.47-.58c-11.51-.36-23 .88-34.55.36.12-5.94.37-94.07.79-100.22 1.68-24.2 2.79-22.85 4.19-39.71 1.23-14.92 6.69-34.28 6.69-34.28A72.3 72.3 0 0 0 62 443c.28-13.87 4.19-7.63 4.19-7.63l.63-.55s-8.44-4.78-9.07-13.84c-1.44-20.61 4.18-58.27 4.18-75.83 0-12.48 3.93-37.1 0-44.44-12-22.37-18.17-48.07-13.28-51 56.33-33.39 76.84-29.63 118-15.49 17.15 5.89 22.67 8.83 27.17 13.74.9-.07 1.45.44 1.53 1.71 4.25 4.83 3.31 9 .72 13.76 1.54 37.47-5.07 58.41-14.71 83.19z" class="d"/><path d="M181.36 346.62c-.14 12.76-.44 24.81-1 45.43-.52 19.36 8 42.1 7.66 46.19-1.62 18.58 9.91 38.09 5.73 76.06-3.11 28.29-6.32 35.1-6.32 35.1s.35 84.87.82 91.9q-14 .71-28.11 1-14.68.32-29.36.25c-3.71-20.64-7.34-124.38-9.13-144-.24-2.61-3.82-5.36-4.07-8.22l-2 1c-1.62 10.3-8.15 32-11.59 56.74-.58 4.15-1.14 89.28-1.68 94.2-7.49-.16-45.5.3-57-.22.12-5.94.37-94.07.79-100.22 1.68-24.2 2.79-22.85 4.19-39.71 1.23-14.92 6.69-34.28 6.69-34.28A72.3 72.3 0 0 0 62 443c.28-13.87 4.19-7.63 4.19-7.63l.63-.55s-8.44-4.78-9.07-13.84c-1.44-20.61 4.18-58.27 4.18-75.83 0-12.48 3.93-37.1 0-44.44-12-22.37-18.17-48.07-13.28-51 56.33-33.39 76.84-29.63 118-15.49 17.15 5.89 22.67 8.83 27.17 13.74.9-.07 1.45.44 1.53 1.71 4.25 4.83 3.31 9 .72 13.76 1.54 37.47-5.07 58.41-14.71 83.19z" class="e"/><path d="M4.34 326.61c6.33-20.73 28-60 28-60 6.33-12 13.84-23.39 26-27.7 6.13-2.18 12.22-1.66 16.27 1.4s6.2 8.69 5.52 14.69c-.61 5.45-3.19 10.32-5.55 14.45-6.55 11.46-14.52 22.21-22.24 32.6a104.78 104.78 0 0 0-9.48 16.44 111.52 111.52 0 0 1-9.12 16c.2.11 2.69 5.64 3.32 6.61 8.08 8.64 23.13 26.76 32.75 38a13.28 13.28 0 0 0 4.37 2.1c3.29.86 6.87.22 10.08 1.32s8.52 7.85 7.75 10.09a2.91 2.91 0 0 1-.85 1l-6.1.89c-1.4-2.28.69-3.46 0-4.48a2.77 2.77 0 0 0-1 3.24 5.82 5.82 0 0 0 1.59 2.32c.19.19.39.37.58.54a4.31 4.31 0 0 0 .41.25l.2.11.53.29a97.74 97.74 0 0 0 11 5.24c3.35 1.09 1.18 4.57.88 5.25-.78 1.72-2.3 1.83-4.1 1.34.63 1.23-1.07 4.07-1.42 4.36a3.89 3.89 0 0 1-3.32.45c-.32.56-2.23 3.67-5.12 2.86a10.55 10.55 0 0 1-2.43-1.27c.06.67-1.61 1.74-3.53 1.43-3.11-.43-12.26-8.43-13.84-11.2-3.26-5.59-2.32-6.7-3.81-9.05-.9-1.42-2.07-3.95-3.35-5C0 341.45.53 340.28.71 339.57c-2.06-2.37.72-12.36 3.63-12.96zM135.79 442.11s.53-.82 5.06-1.15 13.68-9.18 14.48-11.35c.95-2.59.17-3.85-1-4.45-.4-.12-.81-.26-1.22-.4a8.94 8.94 0 0 0-2.7 0l.37-.24a9.88 9.88 0 0 0-3.19 1.53l-5.84 3.74a9.7 9.7 0 0 1-4.1 1.79 3.31 3.31 0 0 1-3.59-2.09c8-3.9 11.69-13.49 19.3-18.06 3.23-1.95 7-2.86 10.38-4.48a52.12 52.12 0 0 0 8.14-5.18c3.59-2.62 25.94-30.12 35.3-41.39 5.57-6.71 12.31-14.82 21.21-19.48L204 308.14c-7.76-10.41-15.78-21.17-22.4-32.68-2.61-4.56-5.12-9.52-5.75-14.95-.74-6.46 1.54-12.56 6-15.91s10.94-3.94 17.5-1.63c13 4.6 29.14 28.63 29.14 28.63a295.55 295.55 0 0 1 30.64 77c.43 1.77 1.08 4.45.12 7a7.58 7.58 0 0 1-4.76 4.53q-.39.13-.81.24c-.32.76-.68 1.52-1.08 2.29-6.29 11.85-17.52 19.51-28.38 26.91-2 1.34-3.91 2.67-5.83 4-4.9 3.46-23.26 17.06-23.55 16.74-3.63 3.15-5.18 4.35-9.07 7.73a9.38 9.38 0 0 0-2.29 2.54c-1.82 3.42-3.91 26.81-12.13 29.8-4.88 1.77-14.28 8.49-17.35 7.81-2.4-.54-3.42-3.52-3.42-3.52s-6.28 1.51-6.47-2.59c0 0-5.81.32-5.15-3.32a4.12 4.12 0 0 1 1.07-1.56c-.73-.1-2.79-.13-3.64-.34-4.99-1.13-.6-4.75-.6-4.75z" class="f"/><path d="M51.28 315.3a240.42 240.42 0 0 1-22.66-18.12c-3.75-3.37-7.41-6.87-11-10.39 12-27.15 24.48-63.52 60.72-63.87 10.26-.1-16.17 52.48-12.88 64.39-.39.16-7.32 13.43-14.18 27.99z" class="g"/><path d="M59.5 454.88c.31-15.77 4.64-8.67 4.64-8.67l.7-.62s-9.35-5.44-10.05-15.74c-1.6-23.44 4.64-66.27 4.64-86.23 0-14.19 4.35-42.18 0-50.53l-.24-.46c-1-14.26-3.71-28.36-4.11-42.69-.21-7.65-.19-14.76 2.05-22.09 53.28-30 75.92-25.28 118.34-10.32 19 6.7 21.33 7.51 22.13 28.43 1.79 42.54.46 71.17-5.73 99.31-.16 14.51-.49 28.22-1.1 51.66-.57 22 8.88 47.87 8.48 52.52-1 11.47 2.35 23.26 4.85 38.54H52.66c.76-3.07 1.28-5 1.28-5a84 84 0 0 0 5.56-28.11z" class="g"/><path d="M201 229.67c6 7.4 21.69 31 36.36 54.17-10.62 9-21.88 17.42-34 24.11-4.88-6.49-9.06-11.95-11.68-15.07-9.78-11.64-21.41-25-22.25-41.17-1.56-29.39 24.01-31.37 31.57-22.04z" class="g"/><path d="M97.71 164.29c15-2.34 29.86-5.54 44.57-9.17-1 12.21-2.05 24.94-2.05 24.94s-2 17.84-1.78 22.94a15.48 15.48 0 0 0 .55 3.19c3.66 2.45 5.92 5.78 5.92 9.45 0 7.53-9.48 13.63-21.17 13.63s-21.16-6.1-21.16-13.63c0-3.53 2.09-6.75 5.52-9.17a36.07 36.07 0 0 0-.76-9.81s-17.71-5.37-20.17-9c-3.4-5-4.12-11-4.16-21.25 4.9-.65 9.8-1.36 14.69-2.12z" class="f"/><path d="M136.57 225.54a14.34 14.34 0 0 0 4-13.31c-.35-2-1-3.68-1-5.64 3.33 2.41 5.36 5.58 5.36 9 0 5.19-4.5 9.7-11.13 12a18.1 18.1 0 0 0 2.77-2.05z" class="h"/><path d="M107.35 196.66s-15.2-4.61-19.38-8.14q8.09-3 16.13-6.11c10.91-4.23 22.37-8.42 33.35-13.49-1.37 3-3.08 5.92-4.75 8.89s-3.57 8.17-7 9.54c-2.79 1.12-5.16 3.34-5.06 6.63a8.93 8.93 0 0 1-3.82 7.33c-1 .57-2.29.68-3.29 1.31-1.71 1.06-2.32 2.66-3.55 4.08l-.18.28a5.7 5.7 0 0 1-1.17.18c-.55 0-1.13.11-1.7.19a14.35 14.35 0 0 1 1.14-.88 36.07 36.07 0 0 0-.72-9.81z" class="i"/><path d="M97.27 195.7c-3.42-1-8.6-5.52-10.22-8-4.36-6.69-4.31-15-4-32.63s-.15-18.61-.15-18.61-.62-16.63 26.92-18.41 33.9 23.19 33.9 27.78c0 1.58-.42-4.85-1 2.34 0 0 4.54-1.13 4.86 4.24.7 11.51-8.12 13.27-8.12 13.27.54 10.59-10.47 31-28.24 31-9.82-.02-10.54.05-13.95-.98z" class="f"/><path d="M83.07 147.36s-5.86-4.05-7.14-6.53-.37-5.92 1.84-6.15a48.79 48.79 0 0 0 5.08-12.83c1.79-7.48 2-20.51 16-18.36a37.31 37.31 0 0 1 21.57 11s3.66 2.68 7.19 1.8a43.52 43.52 0 0 1 12.27-1.29c4.76.41 8.22 3 9.31 5.1 1.77 3.41.89 12.65.89 12.65-1.16.49-2.44 14-2.44 14l-3.78 13.79s-8.48-.42-10.82-3.6-3.24-7.29-2.72-9.39 5.48-12.07 5.48-12.07-3.65 1.62-11.53 1.17a92.3 92.3 0 0 1-16.42-2.8s3.57 4 7.13 4.19-7.45 3.09-16.23 2.38a159 159 0 0 1-15.87-2.1z" class="j"/><path d="M136.22 161.9s-3.33-7.16.52-11.11c4.5-4.62 9.83-4.34 10.67-.56 1.58 7.07-2 11.35-2 11.35s-3.31 4.65-7.05 3.67c-2.47-.64-2.27-3.24-2.32-4.65z" class="f"/><path d="M163.1 244.56c0-.53-6.61-30.39-6.61-30.39l-11.8-6.07-5.13-1.51s-2.45 8.49-10.9 9.42-16.12-.79-18.9-2-2.79-6.68-2.79-6.68l-13.5 3.79L89 250z" class="g"/><path d="M198.09 455.67c-21 11.2-45.43 15.25-69.21 13.83s-47-8.11-69-17.33l-1.06 7.32a3 3 0 0 0 .19 2.06 3 3 0 0 0 1.61 1l30.18 10.89c6.61 2.39 13.23 4.78 20 6.51a109.39 109.39 0 0 0 82.06-12c1.92-1.15 3.88-2.43 5-4.38a7.17 7.17 0 0 0-.42-7.61" class="k"/><path d="M138 212.46a21.62 21.62 0 0 1-10.93 4c-24.11 1.55-21.13-8.51-21.29-8.76l1.15-.33s0 7.93 19.6 6.62a18.09 18.09 0 0 0 13-7.38l2.09.61a13.73 13.73 0 0 1-3.62 5.24z" class="l"/><path d="M149.55 135.63s-22.64 6.51-47.54 5.83S51.1 132 64.39 128.91c0 0 9.68-2.65 16.82-4.24 3.36 5 9.86 6.71 15.8 7.85 17.3 3.34 52.54 3.11 52.54 3.11" class="m"/><path d="M81.21 124.67c3.36 5 9.86 6.71 15.8 7.85 17.3 3.34 52.54 3.11 52.54 3.11 1.35-11.87 4.2-20.42-11.5-37.64-7.1-7.78-23.74-9.6-30.05-8.12s-20.31 5.84-23.46 20.53c-.55 2.54-3.33 14.27-3.33 14.27" class="n"/><path d="M59.5 454.88c.31-15.77 4.64-8.67 4.64-8.67l.7-.62s-9.35-5.44-10.05-15.74c-.76-11.23.27-26.89 1.55-42.36 4.75-8.39 12.74-27.68 15.68-65.68 3.44-44.61-2.49-85.16-4.94-99.34 3.78-2 7.39-3.7 10.87-5.28C80.39 229 88.45 269 89 285.81h80.35s3.6-52.65 6.14-68.28c4.76 1.68 8.47 3 11.38 4.33-1.31 18.22-5.51 79-5.14 105.18.29 20.95 5.79 45.33 9.34 59-.09 3.41-.18 7-.28 10.92-.57 22 8.88 47.87 8.48 52.52-1 11.47 2.35 23.26 4.85 38.54H52.66c.76-3.07 1.28-5 1.28-5a84 84 0 0 0 5.56-28.14z" class="d"/><path d="M52.66 488c.76-3.07 1.28-5 1.28-5a84 84 0 0 0 5.56-28.15c.31-15.77 4.64-8.67 4.64-8.67l.7-.62s-9.35-5.44-10.05-15.74c-.76-11.23.27-26.89 1.55-42.36C61.06 379.15 69 360 72 322.48c.53 3.11 1.05 6.23 1.53 9.35 1 6.56.69 13.72 1.23 21.23.63 8.74 2.45 17.17 8.06 24.12a28.62 28.62 0 0 0 12.42 9c3.38 1.27 8.71.56 11.64 2.44 1.86 1.19 2.74 4.8 3.67 6.81a30.57 30.57 0 0 0 7.32 10.43c3.38 3 7.56 4.57 11.77 6l1.74.63-1 1.14c-3.92 4.59-8.45 8.88-11.66 14a11.66 11.66 0 0 0-6.58 5.34c-3.19 5.45-1.57 14 4.43 16.91 16.42 8 38.1-.13 50-13 11-11.88 13.52-29.91 14-45.46.28-8.45-.62-16.86-.28-25.32.4-10.14 1.52-20.27.76-30.42a249.19 249.19 0 0 1 2-55.22c-.93 17.8-1.61 35.31-1.45 46.51.29 20.95 5.79 45.33 9.34 59-.09 3.41-.18 7-.28 10.92-.57 22 8.88 47.87 8.48 52.52-1 11.47 2.35 23.26 4.85 38.54zM70.18 220.9c2.66-1.34 5.25-2.57 7.77-3.71 1 5 3.1 15.18 5.16 26.47a88.38 88.38 0 0 0-12.93-22.76z" class="e"/><path d="M87.75 282.65c.26-1.83.43-3.66.56-5.49.23 2.14.41 4.15.53 5.95h-1.18c.03-.17.07-.31.09-.46z" class="o"/><path d="M175.43 217.82v-.29c4.76 1.68 8.47 3 11.38 4.33-.52 7.15-1.48 20.86-2.43 36.46-.24-14.32-2.18-28.6-8.95-40.5z" class="e"/><path d="M206.21 439.05s12.41-3.1 19.19 0 6.59 12 0 11.05l-6.59-1s16.87 5.24 18.42 18.42-16.87-3.68-16.87-3.68l-12.6-15.12s19.19 18.8 16.48 30.63-18-16.09-18-16.09-6.59-19-10.27-19.2-10 2.72-10 2.72l.18-11.44 11.78-20.16 22.68 17.64z" class="j"/><path fill="#d9edfc" d="M59.2 438.48s28.94 6.2 30.38 9.48-1.16 26.61-1.66 33 0 7.66-5.86 8.62c-8.78 1.42-28.25-8.5-29.87-12.58s-.72-25.89 0-30.83a11.94 11.94 0 0 1 4.81-7.69s19 4.68 22.08 9 1.42 33.61 0 36.85-1 3.12-6.8 2.33-17.26-8.08-17.26-8.08"/><path d="M166.92 460.11s.53-12.11-2.28-16.87a57.7 57.7 0 0 0-7.66-9.57 29.16 29.16 0 0 0 .1 22.72c5.24 12.14 6.1 9.52 6.1 9.52z" class="o"/><path d="M180.33 454.47l-4.74-28.81a65.41 65.41 0 0 0-7.67.86c-3.58.67-3.66 3.32-3.66 3.32L171 459zM194.16 450.19l-5.55-33.17-8.75 1.14-2.3 4.14 5.75 31.61 4.09-1.43-6.06-31.63 6.78 33.2 6.04-3.86z" class="l"/><path d="M200 442s-40 5.46-44.37 11.18-4.64 20-2.37 29.75 2.91 21.26 13.7 18.78 28.9-10 34-12.53 8.45-6.63 8.89-16.32-2.46-27.86-3.85-29.79-6-1.07-6-1.07z" class="d"/><path d="M165.83 288.11c1.24 2.72 4.81 1.7 7.3 2a47.46 47.46 0 0 0 6.31 0 5.2 5.2 0 0 0 3.53-.88c1.8-1.54 1.74-4.2 1.28-6.59a40.35 40.35 0 0 0-.5-4.93c-1-3.86-10.38-2.63-15.4-2.74-.78 0-1 .67-.72 1.52.58 1.69-.89 3.78-1.13 5.41-.21 1.32-1.22 4.99-.67 6.21zm5.35-2.79a4.87 4.87 0 0 1-.55-.06c.09-.26.17-.56.25-.87a4.76 4.76 0 0 0 1.22 1zM72.64 286.41c2 2.91 4.61 2.46 7.34 2.44h6.26c1.08 0 2.72.35 3.74-.33 2.58-1.71.67-7.89.28-10.69-.23-1.68-3.47-4.82-3.53-3.13-1.49-1-3.12-1.08-5-1.07-3.27 0-6.55.11-9.82.16-.53 0-.74.24-.74 1 .06 3.77-.64 8.56 1.47 11.62zm2-2.16c-.06-.7-.07-1.44-.06-2.19a5.49 5.49 0 0 0 1.55 2.12 8.35 8.35 0 0 1-1.45.07zm11.4-4.91a6.9 6.9 0 0 0-1-1.24c.66 0 1.08.14 1.12.29a1.1 1.1 0 0 1-.08.95z" class="l"/><path d="M178.92 439.64c-.23-7.05-2.24-30-2.14-33.19 2.06.26 9.82 6.51 11.55 15.79 2.29 12.3-2 19.63-5.88 21.58.91.91.54 2.77-.34 3.68a13.17 13.17 0 0 1-3.13 1.85c-2.09 1.24-2.9 4.13-4.31 6.36-11.06 17.47-1.61 35.26-.62 37.86.76 2 2.13 3.56 2.9 5.53s.68 4.77-.91 5.73-3.68-.72-5-2.47a43 43 0 0 1-7.47-29.18c.47-4.42 3.19-19 12.8-25.91a5.07 5.07 0 0 1 0-4.4 5.61 5.61 0 0 1 3-2.72 4.9 4.9 0 0 0 1.86-1c.52-.52-2.31.49-2.31.49z" class="q"/><path d="M178.56 439.66c-1.38-6.9-4.59-29.63-5.42-32.7-1.93.83-8 9-7.58 18.49.59 12.54 6.44 18.43 10.61 19.25-.68 1.14.11 2.84 1.17 3.47s2.29.61 3.44.92c2.31.63 3.76 3.19 5.63 5 14.69 13.85 9.59 33.69 9.22 36.48-.28 2.13-1.25 4-1.55 6.16s.43 4.8 2.19 5.29 3.4-1.72 4.24-3.77a43.8 43.8 0 0 0 .59-30.31c-1.47-4.15-7.43-17.51-18.3-21.53a5 5 0 0 0-1-4.26 5.23 5.23 0 0 0-3.49-1.81 4.67 4.67 0 0 1-2-.43c-.65-.42 2.25-.25 2.25-.25z" class="q"/><path fill="#b2becc" d="M10.11 425.19l104.25-15.05-.73 8.21 9.62 48.95-104.39 6.99-9.94-39.87 1.19-9.23z"/><path d="M50 405.93l1.62 11.4a7.9 7.9 0 0 0 2.38 4.76 5.85 5.85 0 0 0 4 1.65 5 5 0 0 0 .77-.05l43.35-6.14c3.4-.48 5.86-3.84 5.3-7.83L104.66 398c-.27-1.87-.14-2.55-1.44-3.74s-5-1.57-6.71-1.32l-41.41 5.9a5.75 5.75 0 0 0-4.1 2.85 5.36 5.36 0 0 0-1 4.24zm7.23 10.75l-1.61-11.41a2.67 2.67 0 0 1 .32-1.76 1.37 1.37 0 0 1 .93-.69l42.34-6.14h.14a1.45 1.45 0 0 1 .94.42 2.69 2.69 0 0 1 .8 1.61l1.61 11.4c.17 1.21-.4 2.34-1.25 2.46L58.1 418.7a1.4 1.4 0 0 1-1.09-.4c-.46-.4.26-.98.17-1.62z" class="i"/><path d="M114.36 410.14l43.5-7.06L52.6 416.94l-42.49 8.25 104.25-15.05z" class="i"/><path d="M114.36 410.14l43.5-7.06 2.63 6.34s5.74 48.61 4 50.18-41.25 7.7-41.25 7.7l-9.62-48.95z" class="s"/><path d="M8.94 434.49l-.02-.07 1.19-9.23 104.25-15.05-.73 8.21L8.94 434.49zM114.36 410.14l43.5-7.06 2.63 6.34-46.86 8.93.73-8.21z" class="i"/><path d="M88.76 420.14s1 5.4 2 9.12 1.35 5.22 0 5.23-9.47.7-9.47.7l-4.03-12.89s.16-.79 5.24-2.16 6.26 0 6.26 0zM35.13 428.25s-.85.17-5.08.84l-4.23.68S28.7 440 29.21 441.1s9-.67 9-.67z" class="s"/><path d="M4.34 326.61C5.45 323 7 318.77 8.89 314.3c6.59 1.52 13.19 3 19.7 4.64 4.12 1.05 8.25 2.17 12.32 3.44a93 93 0 0 1-7.17 12.11c.2.11 2.69 5.64 3.32 6.61 8.08 8.64 23.13 26.76 32.75 38a13.28 13.28 0 0 0 4.37 2.1c3.29.86 6.87.22 10.08 1.32s8.52 7.85 7.75 10.09a2.91 2.91 0 0 1-.85 1l-6.1.89c-1.4-2.28.69-3.46 0-4.48a2.77 2.77 0 0 0-1 3.24 5.82 5.82 0 0 0 1.59 2.32c.19.19.39.37.58.54a4.31 4.31 0 0 0 .41.25l.2.11.53.29a97.74 97.74 0 0 0 11 5.24c3.35 1.09 1.18 4.57.88 5.25-.78 1.72-2.3 1.83-4.1 1.34.63 1.23-1.07 4.07-1.42 4.36a3.89 3.89 0 0 1-3.32.45c-.32.56-2.23 3.67-5.12 2.86a10.55 10.55 0 0 1-2.43-1.27c.06.67-1.61 1.74-3.53 1.43-3.11-.43-12.26-8.43-13.84-11.2-3.26-5.59-2.32-6.7-3.81-9.05-.9-1.42-2.07-3.95-3.35-5C0 341.45.53 340.28.71 339.57c-2.06-2.37.72-12.36 3.63-12.96z" class="f"/><path d="M158.9 485.69s5.43-.43 10.24-.84 11.19-3.51 11.19-3.51a11.43 11.43 0 0 1-.67-5.52c.28-3.58-1.3-3.92-1.3-3.92a25.44 25.44 0 0 1-9.22 3.82A56.18 56.18 0 0 1 158 476zM191.12 478.34a42.12 42.12 0 0 1 8.35-1.54c4.81-.41 6.53-1.33 6.53-1.33a11.4 11.4 0 0 1-.67-5.51c.28-3.59-1.3-3.93-1.3-3.93s.32.86-4.56 1.64a89.28 89.28 0 0 1-9.3.94z" class="l"/></g><path d="M499 266s14.61-6.62 12.11-22c-1.1-6.79-11.55-17.68-14.85-24.69s-2.66-15.44 1.59-31.13 5.12-19.12.92-24.91a14.69 14.69 0 0 0-8.49-5.82s4.38-.19-9.76-1.14-4.93.44-4.93.44-33.75 12.22-32.09 52.74 8.66 61.84 25.15 64.43S499 266 499 266z" class="a"/><path d="M403.77 203.86h51.75v51.75h-51.75z" class="a"/><path d="M427 217.91s13.52 9.17 22.92 9.62a32.17 32.17 0 0 0 21.73-6.92c1.2-.86-9.52-3.8-22.16-3.8s-22.49-.31-22.49 1.1z" class="a"/><path d="M429.68 234.38s6.94 5.62 19.71 6.22c19.84.94 15.9-3.32 15.9-3.32v-25.13s16.75-4.64 21.65-21.85a89.86 89.86 0 0 0 2.61-33.3s-.8-34.77-37.72-34.77-34.9 30.34-34.9 33.69c0 10.14-2.25 33.37 7.53 42.84 5.93 5.75 5.22 35.62 5.22 35.62z" class="a"/><path d="M443.39 161.51l-21.54-3.77 6.93 55.31.56 6.37s5.84-6.92 5.55-21.26-5.21-23.62-5.21-23.62 8.21 2.18 12.22-.14 5-12 5-12l-3.54-.91" class="t"/><path d="M448.48 156.43s-2.13 14.7-10.73 16.24-10.73 0-10.73 0 7.34 20.88 3.48 34.6-8.89 27.84-26.29 38.86-17.4 11-20.49 22.47c-2.86 10.6 11.7 50.59-2.57 69-21.59 27.88-76.08 16.28-71.08-34.28 2.21-22.38 16-36.15 26.09-40.79l10.06-4.64s-7.93-6.38-5-16.43 7.54-11.79 19.33-17.4 34.22-15.66 43.88-30 10.58-22.26 11.47-43.22c0-.43-3.39-28.06 12.14-25 0 0 42.31-27.85 58.82 15 1.51 3.91-5.95 13.54-14.24 16.17-11.1 3.53-24.14-.58-24.14-.58zM484.92 242.91s18.48 23 29.51 49c19.34 45.69 20.4 81.18 28 85.55s22.42 4.79 48.54 7.18 43.72-1.53 43.72-1.53l4.09 14.36S560.2 434.08 521 414.9c-9.78-4.78-10.33-8.16-12.86-14.31-12.56-30.46-27.49-63.66-44.24-111.27-22.7-64.38 21.02-46.41 21.02-46.41z" class="a"/><path d="M626.5 388.94c0 1.1.11 2.2.21 3.29q.06.7.15 1.41c-.08-.47-.07-.42 0 .15a62.64 62.64 0 0 0 1.73 8.06c6.37-2.57 13.81-4.09 16.94-3.55s-9.62-19.11-9.62-19.11-4.15 4.6-9.4 5.22q-.08 2.27-.01 4.53zM506.4 426.56a62.79 62.79 0 0 1-2.9 19.71c-2.61 7.83-.87 14.79-2.9 20.59a66.08 66.08 0 0 0-2.47 8.14l4.5 17.66a129.62 129.62 0 0 1 4.35 29c.13 6.79 6.25 111.23 7.41 120H358.78c1.46-30.24 13.09-367.74 22-379.07 5-6.28 29.8-21.26 29.8-21.26l8.84-5 6.09-3.19a67.62 67.62 0 0 1 17.38.8l3.84 5.94 11.67-.36 13.47-6.38s12.75 8.12 15.93 12.76 25.81 36.7 23.78 88.23-5.18 88.08-5.18 92.43zM413 151.41c7.6 1.93 16.6 4.64 24.21 6.57a132.05 132.05 0 0 1 14.86 4.42 44.94 44.94 0 0 0 6.56 2.25c3.32.7 6.77.35 10.15 0 3.14-.36 6.27-.76 9.41-1.16 11.78-1.5 25.46-4.59 36.18-6.24-8.31-2.27-17.83-6.7-25.45-10.71l-.45-.89s1.21 2.67-25.87 5.21a308.31 308.31 0 0 1-49.6.55z" class="a"/><path d="M413 151.41c-.11-13.12-2.24-23.58 16.9-40.6 8.64-7.68 27-7.75 33.75-5.41s21.52 8.72 23.27 25.13c.31 2.84 1.55 15.08 1.55 15.08s2.62 2.64-25.87 5.21a299.89 299.89 0 0 1-49.6.59z" class="a"/><g class="u"><path d="M489.85 478.48a39.53 39.53 0 0 1 3.1 19.09" class="a"/><path d="M489.85 478.48a18.87 18.87 0 0 1 2.31 4.4 25.21 25.21 0 0 1 1.59 9.78 19 19 0 0 1-.8 4.91c-.22-1.66-.37-3.26-.56-4.86s-.39-3.17-.66-4.74-.56-3.14-.87-4.71-.69-3.15-1.01-4.78z" class="v"/><path d="M480.66 480.3l1.32 9" class="a"/><path d="M480.66 480.3a8.57 8.57 0 0 1 1 2.16 13.65 13.65 0 0 1 .66 4.51 8.58 8.58 0 0 1-.34 2.36 9 9 0 0 1-1-2.16 14.38 14.38 0 0 1-.66-4.51 9 9 0 0 1 .34-2.36z" class="v"/><path d="M471.08 482.43a122.72 122.72 0 0 0 1.05 13.27" class="a"/><path d="M471.08 482.43a21 21 0 0 1 .81 3.29c.18 1.1.31 2.19.4 3.29s.13 2.2.12 3.31a19.59 19.59 0 0 1-.28 3.38 15.52 15.52 0 0 1-1.08-3.23 25.08 25.08 0 0 1-.49-3.32 23.55 23.55 0 0 1 0-3.36 15.71 15.71 0 0 1 .52-3.36z" class="v"/><path d="M417.45 476.6q.57 6.48.56 13" class="a"/><path d="M417.45 476.6a15.36 15.36 0 0 1 .93 3.2 23.59 23.59 0 0 1 .36 3.25 22.5 22.5 0 0 1-.08 3.28 14.58 14.58 0 0 1-.65 3.27 19.22 19.22 0 0 1-.71-3.24 32.28 32.28 0 0 1-.29-3.23 31.83 31.83 0 0 1 0-3.24 17.88 17.88 0 0 1 .44-3.29z" class="v"/><path d="M403.74 474.47q.13 6.78-.39 13.55" class="a"/><path d="M403.74 474.47a16.34 16.34 0 0 1 .71 3.4 25.86 25.86 0 0 1 .13 3.41 24.17 24.17 0 0 1-.33 3.39 16.14 16.14 0 0 1-.9 3.35 20.33 20.33 0 0 1-.46-3.42c-.07-1.13-.08-2.25-.05-3.37s.11-2.25.24-3.37a21.8 21.8 0 0 1 .66-3.39z" class="v"/><path d="M394.83 476.06c.25 3.14.34 6.74-1.95 8.9" class="a"/><path d="M394.83 476.06a7.61 7.61 0 0 1 .8 2.35 7.92 7.92 0 0 1 .05 2.48 6.14 6.14 0 0 1-.84 2.42 3.81 3.81 0 0 1-2 1.65 17 17 0 0 0 1.08-4.31l.31-2.22a12.86 12.86 0 0 1 .6-2.37z" class="v"/></g><path d="M450.72 212.79a54 54 0 0 0 9.38.09c2.68-.27 5.19-.73 5.19-.73l.1 27.66-9.2 3.12a63.31 63.31 0 0 1-1.09-8.26c-.14-3.17-.39-6.48.66-7.43.71-.63 2.1-.76 4-1.37 2.6-.85 5.07-1.85 5.07-1.85s-.35-4.69-2.19-6.11a29.05 29.05 0 0 0-11.92-5.12z" class="t"/><path d="M471.67 220.61c-1.15 1.53-11 6-13.92 6.19-3.3.26-2 12.37-2 12.37a36.84 36.84 0 0 0 .41 3.76s6.35-2.07 9.2-3.12a28.77 28.77 0 0 0 6.52-4.12l-.24-15.08M430.3 236.46s6.19 3.48 11.8 4.26l5.6.77s.78-12.86 0-14.35-8.31-2.85-12.76-4.79a47.55 47.55 0 0 1-7.92-4.44l-1.47 15.38zM652.52 641.69L655.43 201l9.15-.25s-2.32 338.32-3.89 440.9zM707.77 141.08c-1.78 1.91-20.62.7-21.15-1.59.46 2-7 .63-8-.49 3.75 4.24-9.11 0-7.62 0-2.21 0-3 2.35-4.57 2.22-2-.16-2.69-2.6-4.53-2.73s-4.09.71-6.25.51c-3.14-.3-5-.28-7.94-.37s-6.35.32-9.68.28c-1.32 0-2.61-2.8-4.17-2.78-.75 0-5.15 1.43-6.46 1.59-4.3.53-2.36.82-6 .53-10.37-.81-22.64-4.76-27.26 3.71-3.22 5.9-3.85 12-4.3 18.47-.49 7.19 1.37 10.84 2.88 17.57 4.14-3 5.64.48 8.66.44 1.85 0 4.44-1.63 6.82-1.35s4.88 3.44 6.86 3.41c1.49 0 1.61-1.54 3.51-1.51s3.2-1 5.38-.81c3.53.25 6.41 1.63 9.82 1.49a156.76 156.76 0 0 1 24.53.46c4.55.5 9.39-.09 11.53.14 1.86.2 6.49 1.38 8.94 1.56-.66-.05 6.22-1 7-1.09a44.57 44.57 0 0 1 6-.12 117.42 117.42 0 0 1 12.27 1.21c-4.81-8.72 3.56-27.73 2.51-30.11" class="a"/><path d="M654.38 283.11l9.68 3.07c1.4 0 2-6.25 2-7.65l.88-54.31c0-1.39-1-4-2.38-4l-8.56 1.47c-1.39 0-3.16-.53-3.16.86l.67 61.69c.01 1.39-.51-1.13.87-1.13zM664.86 369.53s7.87-3.2 10.34 0 3 7 5.12 14.2 3.41 12.32 1.13 15.55-8.34 5.72-12.13 5.72-5.5-2.27-5.88-4.55-1.51-.94-3.79-2.84 1-6.63 1-6.63-1.89 1.51-3-.19.43-5.09 1.89-7.21l1.47-2.11" class="a"/><path d="M654.21 381.72c1.71-1.32 6.77-3.11 6.77-3.11s-1.75 5.38 5.69 10.24c4.93 3.22 7.77-.76 7.77-.76a110.79 110.79 0 0 0-5.5-13.65c-2.84-5.49-4.93-5.68-9.29-5.68s-9.66 2.84-17.44 6.06-7.2 7-7.2 7L638.8 394c2.84 3 13.45 7.4 15.16 8.35z" class="a"/><path fill="#fff" d="M480.34 427.62c4.29 0 9.75 9.59 3.92 9.59-4.26 0-9.75-9.59-3.92-9.59z" opacity=".14"/><path d="M456 252.14v-9a7.73 7.73 0 0 0-5.26.66c-4.06 31.44 2.22 63.14 5.49 94.67 3.1 30 3.47 60.28-.42 90.15-1.63 12.53-4 25-6 37.43a9.91 9.91 0 0 0 0 4.78c.52 1.52 2.08 2.82 3.65 2.47 1.89-.42 2.6-2.69 2.91-4.6a248.75 248.75 0 0 0 2.44-25.87l4.13-69.92c.62-10.46 1.23-21 .3-31.39-.89-9.9-3.17-19.63-4.45-29.5-1.18-9-1.52-18.16-1.85-27.27l-1.07-29.09" class="a"/><path d="M461.18 390.73a1.88 1.88 0 0 1-1.55-.38M461.82 389.06a2.35 2.35 0 0 1-1.42-.25M462.08 385.71h-1.29M462 374.12h-1.42M462.6 370.75a13.2 13.2 0 0 1-2.59-.06M462.47 366.25h-2.19M463.24 361.46l-3.87.14M463.24 348.6a14.72 14.72 0 0 0-2.57.14" class="x"/><path d="M510 308.83c-3.79 2.72-6.8 6.65-10 10.16-5 5.5-38.91 37.8-45.75 36.36s-33.57-62-58.1-86.45c-3.2-3.2-12.74-6.52-18.78-.42-11 11.06-.63 28.17 2.56 36.63 7.3 19.36 16.24 34.62 26 52.88s29.8 43.85 45.69 43.19c18-.74 41.64-31.84 59.75-61.71l-.2-25z" class="a"/><path d="M451.66 396.86c-15.89.66-36-24.94-45.69-43.2s-18.69-33.52-26-52.88c-3.19-8.46-13.52-25.57-2.56-36.63 6-6.1 15.58-2.78 18.78.42 24.53 24.49 51.26 85 58.1 86.45s40.73-30.85 45.75-36.36c4.25-4.67 8.18-10.11 14.07-12.4 3.13-1.22 7.14-1.23 9.37 1.28a7.54 7.54 0 0 1 1.43 6.34 21.48 21.48 0 0 1-2.55 6.2C503.9 350 473.57 396 451.66 396.86z" class="a"/><path d="M462.72 287.26c-1.06-7.94-4.56-15.31-8-22.53l-.81 1.19c-2.15 2.38-3 5.61-3.84 8.71-1.12 4.28-2.24 8.67-1.88 13.09s2.48 8.95 6.39 11a5 5 0 0 0 2.82.7 4.56 4.56 0 0 0 2.38-1.06c3.12-2.49 3.48-7.12 2.94-11.1zm-6.05 6.05c-1.45.45-2.68-1.12-3.28-2.5a7 7 0 0 1-.74-3.69 3 3 0 0 1 2.35-2.62l-.22.86c.67-.43 1.39.45 1.7 1.18l.84 2a6.67 6.67 0 0 1 .72 2.64 2.28 2.28 0 0 1-1.37 2.13zM708.4 141.3c-4.07-.07-5 26-5 27.52-.1 6.38.5 12.7 1.6 12.86 1.41.21 3.32-1.76 4.13-9.71 1-9.56.68-19.29.34-28.93a3.69 3.69 0 0 0-.21-1.3c-.17-.38-.54-.64-.84-.44" class="a"/><path d="M665.05 202s-8.41.91-9.87.52-.8-9.63-.8-9.63.14-3 11.59-2.47 44.37 2.73 47 2.73 2.47-8.33 2.47-10.67v-13.4c0-2.73-5.2-3-5.2-3h-5l.13-7.2h7.42c2.34 0 7.81.3 7.81 2.91s-.91 27.2-.91 32.14-3 6.38-8 6-46.81-3-46.81-3z" class="a"/><g class="c"><path d="M499 266s14.61-6.62 12.11-22c-1.1-6.79-11.55-17.68-14.85-24.69s-2.66-15.44 1.59-31.13 5.12-19.12.92-24.91a14.69 14.69 0 0 0-8.49-5.82s4.38-.19-9.76-1.14-4.93.44-4.93.44-33.75 12.22-32.09 52.74 8.66 61.84 25.15 64.43S499 266 499 266z" class="s"/><path fill="#afc4d8" d="M403.77 203.86h51.75v51.75h-51.75z"/><path d="M427 217.91s13.52 9.17 22.92 9.62a32.17 32.17 0 0 0 21.73-6.92c1.2-.86-9.52-3.8-22.16-3.8s-22.49-.31-22.49 1.1z" class="o"/><path d="M429.68 234.38s6.94 5.62 19.71 6.22c19.84.94 15.9-3.32 15.9-3.32v-25.13s16.75-4.64 21.65-21.85a89.86 89.86 0 0 0 2.61-33.3s-.8-34.77-37.72-34.77-34.9 30.34-34.9 33.69c0 10.14-2.25 33.37 7.53 42.84 5.93 5.75 5.22 35.62 5.22 35.62z" class="a"/><path d="M443.39 161.51l-21.54-3.77 6.93 55.31.56 6.37s5.84-6.92 5.55-21.26-5.21-23.62-5.21-23.62 8.21 2.18 12.22-.14 5-12 5-12l-3.54-.91" class="z"/><path d="M448.48 156.43s-2.13 14.7-10.73 16.24-10.73 0-10.73 0 7.34 20.88 3.48 34.6-8.89 27.84-26.29 38.86-17.4 11-20.49 22.47c-2.86 10.6 11.7 50.59-2.57 69-21.59 27.88-76.08 16.28-71.08-34.28 2.21-22.38 16-36.15 26.09-40.79l10.06-4.64s-7.93-6.38-5-16.43 7.54-11.79 19.33-17.4 34.22-15.66 43.88-30 10.58-22.26 11.47-43.22c0-.43-3.39-28.06 12.14-25 0 0 42.31-27.85 58.82 15 1.51 3.91-5.95 13.54-14.24 16.17-11.1 3.53-24.14-.58-24.14-.58z" class="s"/><path d="M484.92 242.91s18.48 23 29.51 49c19.34 45.69 20.4 81.18 28 85.55s22.42 4.79 48.54 7.18 43.72-1.53 43.72-1.53l4.09 14.36S560.2 434.08 521 414.9c-9.78-4.78-10.33-8.16-12.86-14.31-12.56-30.46-27.49-63.66-44.24-111.27-22.7-64.38 21.02-46.41 21.02-46.41z" class="k"/><path d="M626.5 388.94c0 1.1.11 2.2.21 3.29q.06.7.15 1.41c-.08-.47-.07-.42 0 .15a62.64 62.64 0 0 0 1.73 8.06c6.37-2.57 13.81-4.09 16.94-3.55s-9.62-19.11-9.62-19.11-4.15 4.6-9.4 5.22q-.08 2.27-.01 4.53z" class="a"/><path d="M506.4 426.56a62.79 62.79 0 0 1-2.9 19.71c-2.61 7.83-.87 14.79-2.9 20.59a66.08 66.08 0 0 0-2.47 8.14l4.5 17.66a129.62 129.62 0 0 1 4.35 29c.13 6.79 6.25 111.23 7.41 120H358.78c1.46-30.24 13.09-367.74 22-379.07 5-6.28 29.8-21.26 29.8-21.26l8.84-5 6.09-3.19a67.62 67.62 0 0 1 17.38.8l3.84 5.94 11.67-.36 13.47-6.38s12.75 8.12 15.93 12.76 25.81 36.7 23.78 88.23-5.18 88.08-5.18 92.43z" class="d"/><path d="M413 151.41c7.6 1.93 16.6 4.64 24.21 6.57a132.05 132.05 0 0 1 14.86 4.42 44.94 44.94 0 0 0 6.56 2.25c3.32.7 6.77.35 10.15 0 3.14-.36 6.27-.76 9.41-1.16 11.78-1.5 25.46-4.59 36.18-6.24-8.31-2.27-17.83-6.7-25.45-10.71l-.45-.89s1.21 2.67-25.87 5.21a308.31 308.31 0 0 1-49.6.55z" class="m"/><path d="M413 151.41c-.11-13.12-2.24-23.58 16.9-40.6 8.64-7.68 27-7.75 33.75-5.41s21.52 8.72 23.27 25.13c.31 2.84 1.55 15.08 1.55 15.08s2.62 2.64-25.87 5.21a299.89 299.89 0 0 1-49.6.59z" class="n"/><g class="u"><path d="M489.85 478.48a18.87 18.87 0 0 1 2.31 4.4 25.21 25.21 0 0 1 1.59 9.78 19 19 0 0 1-.8 4.91c-.22-1.66-.37-3.26-.56-4.86s-.39-3.17-.66-4.74-.56-3.14-.87-4.71-.69-3.15-1.01-4.78zM480.66 480.3a8.57 8.57 0 0 1 1 2.16 13.65 13.65 0 0 1 .66 4.51 8.58 8.58 0 0 1-.34 2.36 9 9 0 0 1-1-2.16 14.38 14.38 0 0 1-.66-4.51 9 9 0 0 1 .34-2.36zM471.08 482.43a21 21 0 0 1 .81 3.29c.18 1.1.31 2.19.4 3.29s.13 2.2.12 3.31a19.59 19.59 0 0 1-.28 3.38 15.52 15.52 0 0 1-1.08-3.23 25.08 25.08 0 0 1-.49-3.32 23.55 23.55 0 0 1 0-3.36 15.71 15.71 0 0 1 .52-3.36zM417.45 476.6a15.36 15.36 0 0 1 .93 3.2 23.59 23.59 0 0 1 .36 3.25 22.5 22.5 0 0 1-.08 3.28 14.58 14.58 0 0 1-.65 3.27 19.22 19.22 0 0 1-.71-3.24 32.28 32.28 0 0 1-.29-3.23 31.83 31.83 0 0 1 0-3.24 17.88 17.88 0 0 1 .44-3.29zM403.74 474.47a16.34 16.34 0 0 1 .71 3.4 25.86 25.86 0 0 1 .13 3.41 24.17 24.17 0 0 1-.33 3.39 16.14 16.14 0 0 1-.9 3.35 20.33 20.33 0 0 1-.46-3.42c-.07-1.13-.08-2.25-.05-3.37s.11-2.25.24-3.37a21.8 21.8 0 0 1 .66-3.39zM394.83 476.06a7.61 7.61 0 0 1 .8 2.35 7.92 7.92 0 0 1 .05 2.48 6.14 6.14 0 0 1-.84 2.42 3.81 3.81 0 0 1-2 1.65 17 17 0 0 0 1.08-4.31l.31-2.22a12.86 12.86 0 0 1 .6-2.37z" class="v"/></g><path d="M450.72 212.79a54 54 0 0 0 9.38.09c2.68-.27 5.19-.73 5.19-.73l.1 27.66-9.2 3.12a63.31 63.31 0 0 1-1.09-8.26c-.14-3.17-.39-6.48.66-7.43.71-.63 2.1-.76 4-1.37 2.6-.85 5.07-1.85 5.07-1.85s-.35-4.69-2.19-6.11a29.05 29.05 0 0 0-11.92-5.12z" class="z"/><path d="M471.67 220.61c-1.15 1.53-11 6-13.92 6.19-3.3.26-2 12.37-2 12.37a36.84 36.84 0 0 0 .41 3.76s6.35-2.07 9.2-3.12a28.77 28.77 0 0 0 6.52-4.12l-.24-15.08M430.3 236.46s6.19 3.48 11.8 4.26l5.6.77s.78-12.86 0-14.35-8.31-2.85-12.76-4.79a47.55 47.55 0 0 1-7.92-4.44l-1.47 15.38z" class="k"/><path d="M652.52 641.69L655.43 201l9.15-.25s-2.32 338.32-3.89 440.9z" class="m"/><path d="M707.77 141.08c-1.78 1.91-20.62.7-21.15-1.59.46 2-7 .63-8-.49 3.75 4.24-9.11 0-7.62 0-2.21 0-3 2.35-4.57 2.22-2-.16-2.69-2.6-4.53-2.73s-4.09.71-6.25.51c-3.14-.3-5-.28-7.94-.37s-6.35.32-9.68.28c-1.32 0-2.61-2.8-4.17-2.78-.75 0-5.15 1.43-6.46 1.59-4.3.53-2.36.82-6 .53-10.37-.81-22.64-4.76-27.26 3.71-3.22 5.9-3.85 12-4.3 18.47-.49 7.19 1.37 10.84 2.88 17.57 4.14-3 5.64.48 8.66.44 1.85 0 4.44-1.63 6.82-1.35s4.88 3.44 6.86 3.41c1.49 0 1.61-1.54 3.51-1.51s3.2-1 5.38-.81c3.53.25 6.41 1.63 9.82 1.49a156.76 156.76 0 0 1 24.53.46c4.55.5 9.39-.09 11.53.14 1.86.2 6.49 1.38 8.94 1.56-.66-.05 6.22-1 7-1.09a44.57 44.57 0 0 1 6-.12 117.42 117.42 0 0 1 12.27 1.21c-4.81-8.72 3.56-27.73 2.51-30.11" class="q"/><path d="M654.38 283.11l9.68 3.07c1.4 0 2-6.25 2-7.65l.88-54.31c0-1.39-1-4-2.38-4l-8.56 1.47c-1.39 0-3.16-.53-3.16.86l.67 61.69c.01 1.39-.51-1.13.87-1.13z" class="o"/><path d="M664.86 369.53s7.87-3.2 10.34 0 3 7 5.12 14.2 3.41 12.32 1.13 15.55-8.34 5.72-12.13 5.72-5.5-2.27-5.88-4.55-1.51-.94-3.79-2.84 1-6.63 1-6.63-1.89 1.51-3-.19.43-5.09 1.89-7.21l1.47-2.11" class="a"/><path d="M654.21 381.72c1.71-1.32 6.77-3.11 6.77-3.11s-1.75 5.38 5.69 10.24c4.93 3.22 7.77-.76 7.77-.76a110.79 110.79 0 0 0-5.5-13.65c-2.84-5.49-4.93-5.68-9.29-5.68s-9.66 2.84-17.44 6.06-7.2 7-7.2 7L638.8 394c2.84 3 13.45 7.4 15.16 8.35z" class="a"/><path fill="#3c3c3b" d="M480.34 427.62c4.29 0 9.75 9.59 3.92 9.59-4.26 0-9.75-9.59-3.92-9.59z" opacity=".14"/><path d="M456 252.14v-9a7.73 7.73 0 0 0-5.26.66c-4.06 31.44 2.22 63.14 5.49 94.67 3.1 30 3.47 60.28-.42 90.15-1.63 12.53-4 25-6 37.43a9.91 9.91 0 0 0 0 4.78c.52 1.52 2.08 2.82 3.65 2.47 1.89-.42 2.6-2.69 2.91-4.6a248.75 248.75 0 0 0 2.44-25.87l4.13-69.92c.62-10.46 1.23-21 .3-31.39-.89-9.9-3.17-19.63-4.45-29.5-1.18-9-1.52-18.16-1.85-27.27l-1.07-29.09" class="n"/><path d="M461.18 390.73a1.88 1.88 0 0 1-1.55-.38M461.82 389.06a2.35 2.35 0 0 1-1.42-.25M462.08 385.71h-1.29M462 374.12h-1.42M462.6 370.75a13.2 13.2 0 0 1-2.59-.06M462.47 366.25h-2.19M463.24 361.46l-3.87.14M463.24 348.6a14.72 14.72 0 0 0-2.57.14" class="ab"/><path fill="#cde8fb" d="M462.72 287.26c-1.06-7.94-4.56-15.31-8-22.53l-.81 1.19c-2.15 2.38-3 5.61-3.84 8.71-1.12 4.28-2.24 8.67-1.88 13.09s2.48 8.95 6.39 11a5 5 0 0 0 2.82.7 4.56 4.56 0 0 0 2.38-1.06c3.12-2.49 3.48-7.12 2.94-11.1zm-6.05 6.05c-1.45.45-2.68-1.12-3.28-2.5a7 7 0 0 1-.74-3.69 3 3 0 0 1 2.35-2.62l-.22.86c.67-.43 1.39.45 1.7 1.18l.84 2a6.67 6.67 0 0 1 .72 2.64 2.28 2.28 0 0 1-1.37 2.13z"/><path d="M708.4 141.3c-4.07-.07-5 26-5 27.52-.1 6.38.5 12.7 1.6 12.86 1.41.21 3.32-1.76 4.13-9.71 1-9.56.68-19.29.34-28.93a3.69 3.69 0 0 0-.21-1.3c-.17-.38-.54-.64-.84-.44" class="d"/><path d="M665.05 202s-8.41.91-9.87.52-.8-9.63-.8-9.63.14-3 11.59-2.47 44.37 2.73 47 2.73 2.47-8.33 2.47-10.67v-13.4c0-2.73-5.2-3-5.2-3h-5l.13-7.2h7.42c2.34 0 7.81.3 7.81 2.91s-.91 27.2-.91 32.14-3 6.38-8 6-46.81-3-46.81-3z" class="d"/></g><path fill="url(#a)" d="M190.77 359.57c12.41 9.28 62.1 38.85 72.66 42.58 4.17 1.48 5.62.7 5.62.7a15.11 15.11 0 0 0 8.06-5.89c3.42-4.81.66-8.31.66-8.31s-31.53-43-63.13-61.93c-4.65-2.78-7-4-6.36-15.89.44-8.24-12.78 5.56-24.08 4.06-6.69-.88-20.43-4.81-22.67 1.41-.76 2.11.44 13.25.44 13.25.55 13.55 19.03 22.75 28.8 30.02z"/><path d="M285.71 491c5.74-27.08 7.3-1.66 8.84 20.53.88 12.65 11.56 110.58 13.76 130.3l-2.54.46 75.24-.53c-9.08-54.27-25.14-233.1-25.14-233.1l-146.6 3.14s-4.57 128.83-9.12 231.14l69-.55c2.01-34.62 14.79-143.05 16.56-151.39z" class="k"/><path d="M419.1 313.53c-5.22-40.6-14-100.4-23.08-118.68s-26-25.08-43.45-33.72a161 161 0 0 0-26.78-10.9l-4.07-13.48a2.83 2.83 0 0 0-1-3.6C317.76 131.31 299 133 299 133l-32.26 4.89s-15.48-.5-15.91 3.71-.42 7.35-.42 7.35-60.49 24.43-71.8 54-17.69 54.23-17.4 106.15 42.33 27 42.33 27-1.68.16 2.54-2.39a2.38 2.38 0 0 0 1.14-1.9c.44-10.53 4.33-83.19 5.14-72s4.82 70.47 4.82 70.47a176.83 176.83 0 0 1 1.74 20.3c.58 13.63-2.29 39.29-2.29 39.29s29.87 14.5 71.93 13.63 65.25-9 65.25-9 7.41 6.81 7.33-13.2c0-9 2.89-97 2.42-109.09 0 0-1.55-27.53-1.33-27.08-.09-1.51 10.26 64.09 10.34 66.38.78 21.34-9.62 25.43-9.62 25.43l-1.72 38.5s63.09-21.31 57.87-61.91z" class="m"/><path fill="#57b4e5" d="M288.46 183.34c-.76-7.16-2.26-14.63-.38-21.75 4.14-15.76 11.87-16.8 24-23.92l-.42-1.38-2.35-2.87-10.84-2.48-31.75 6.95s-15.48-.5-15.91 3.71-.42 7.35-.42 7.35-4.15 1.68-10.45 4.67a7.65 7.65 0 0 1-.32 2.09c-2.92 9.43 12.61 13.81 19.16 17 9.32 4.56 15.78 10.65 21.93 19.1a95 95 0 0 1 9.42 16.19c-.27-8.25-.8-16.46-1.67-24.66z" opacity=".6"/><path d="M290.35 220.57s-1.64-17.74-2.75-24-7.92-32.76-7.92-32.76l-2.89-9.11a16 16 0 0 0-3.3-2.69c-2.25-1.47-9.64-2.72-11.95-4.06l-2.31-1.34.76-19.49 54.14-7.91v24a33.64 33.64 0 0 1-5.69 4.92c-4.11 3-9.38 6.44-13.53 7.9s-4.29 10.17-4.35 18.66-.21 45.88-.21 45.88z" class="a"/><path d="M260 127.08l-.33 8.43a25.5 25.5 0 0 0 8.2 6.05c6.25 2.82 13.72 3.78 17.88 9.89 2.73 4 2.31 8.34 1.58 12.88-.78 4.85.1 9.48 1.35 14.17q1 3.75 1.83 7.48c0-4.93.05-9.08.06-11.28.06-8.49.19-17.19 4.35-18.66s9.42-4.9 13.53-7.9a33.64 33.64 0 0 0 5.69-4.92v-24z" class="af"/><path d="M289.55 212.44c.47 4.53.8 8.13.8 8.13v-8.29a4.15 4.15 0 0 1-.8.16z" class="h"/><path d="M250.35 64.63l-1.1 16.81a17.73 17.73 0 0 0 1.27-6.19 5.92 5.92 0 0 0-3.05-5.2 5.46 5.46 0 0 0-6.13 1.65 9.78 9.78 0 0 0-2.1 6.33c-.19 8.52 5.92 15.77 8.51 23.9 1.2 3.76 1.65 7.72 2.77 11.5 2.38 8 7.72 14.84 14 20.36 5.06 4.49 11 8.31 17.67 9.38 11 1.77 22.19-4.47 28.75-13.47s9.15-20.31 10.15-31.41.55-22.29 1.77-33.36" class="af"/><path fill="url(#b)" d="M249.32 63.84c-.44 10.84-1.59 21.68-1 32.52s3 21.85 9 30.87 16.14 15.76 27 15.75c10.13 0 19.66-5.86 25.81-13.91s9.24-18 10.71-28.07 1.44-20.18 2-30.29c.41-7.92 1-16.48-3.32-23.12-4.87-7.49-14.48-10.18-23.35-11.2-10.51-1.21-21.58-.8-31 4S248.23 55 248.91 65.57"/><path fill="#1d3f56" d="M319.44 47.59c-4.87-7.49-14.48-10.18-23.35-11.2-10.51-1.21-21.58-.8-31 4S248.23 55 248.91 65.57l.41-1.73c-.44 10.84-1.59 21.68-1 32.52s-1.62 16.57 4.41 25.59 19.88 21 30.73 21c10.12 0 23.74-8.81 30.82-16s5.92-16.23 7.4-26.25.58-19.86 1.1-30c.39-7.91.99-16.47-3.34-23.11zM316 102.72c-1.32 6-.73 8.92-4.47 11.24-3.32 2.06-7.5 2.51-10.71-1.61-1.61-2.06-2.59-5.73-5.64-6.74-5.43-1.79-14.27-1.7-18.8-.6-2.59.62-4.11 3.91-4.93 5.33-4.38 7.49-6.84 5-12.72.15s-4.18-30-6.5-44.59c-1.45-9.13 12.5-13 14-3.85.11.67.15 1.34.22 2 4-4 10.42-3.49 15.67-3.44 10.2.08 20.39-.17 30.6.1a7.36 7.36 0 0 1 7.21 7.29 156.67 156.67 0 0 1-3.93 34.72z"/><path d="M326.28 52.71c-5 4.06-10.72 5.19-17.13 5.74a282.38 282.38 0 0 1-58.92-1.16 6.9 6.9 0 0 1-3.93-1.36c-1.32-1.22-1.48-3.23-1.54-5-.22-7.21-.16-14.51 1.54-21.53s5.17-13.82 10.77-18.4a34.77 34.77 0 0 1 15.74-6.7c9-1.64 18.18-.94 27.27-.23 4.24.33 10.87 1.45 14.49 3.69 4.37 2.71 6.9 7.85 8.67 12.68 3.88 10.58 3.39 21 3 32.23" class="k"/><path d="M322.88 72.31a4.28 4.28 0 0 1 5.61-.57 6.53 6.53 0 0 1 2.53 5.4 14.69 14.69 0 0 1-1.55 6c-2.5 5.57-4.15 9.86-7.82 14.74" class="af"/><path d="M265.21 6.62c1.1-.64 3.3-1.09 10.87-1 2.23 0 3 1.2 3.42 3a29.66 29.66 0 0 1 .16 4.66c.06 12.75-.25 23.73-.46 36.48l21.09-.36c.65-13.36 1.29-22.21 1.94-35.57.16-3.36.81-8.27-.4-10.24S297.61 0 294.84 0A75.85 75.85 0 0 0 281 1.16C273 2.67 268.64 5 265.83 6" class="m"/><path fill="#57b4e5" d="M233.43 276.1s-1-18.48-2.06-30.41c-.6-6.48-1.53-13.33-2.25-18.24-.61-4.13-1.08-6.88-1.08-6.88a2.65 2.65 0 0 1 2.65-2.65l38.36-4a2.65 2.65 0 0 1 2.64 2.64s.53 4.65 1.11 22.51c.33 10.16.43 27.33.39 34.17" opacity=".61"/><path d="M230.28 228.1s20.46 8.34 23 8.34 18.21-13.9 18.21-13.9l1.1-.65a13.84 13.84 0 0 0 .5-5c-.27-2.54-1.82-3.32-3.36-3.32s-31.75 3-34.51 3.54-9 .62-8.86 3.34a30.54 30.54 0 0 0 .93 6.17c.37 1.25 2.99 1.48 2.99 1.48z" class="o"/><path d="M230.78 227.62s19.47 7.5 22.05 7.5 19.2-13.9 19.2-13.9l1.1-.65a26.21 26.21 0 0 0 0-5c-.27-2.53-1.82-3.32-3.36-3.31s-31.75 3-34.51 3.53-9 .62-8.86 3.34a42.41 42.41 0 0 0 .93 7c.33 1.26 3.45 1.49 3.45 1.49z" class="k"/><circle cx="252.39" cy="231.15" r=".94" class="o"/><path d="M212.31 389.09l-3 22.68S268 430.47 292.15 429s65.24-12.61 65.24-12.61v-23.11s-46.46 11.82-76.52 10.26-68.56-14.45-68.56-14.45z" class="f"/><path d="M360 377.62s-35 7.5-36.76 11.47 1.4 32.21 2 40 0 9.27 7.09 10.43c10.62 1.74 34.19-10.3 36.15-15.3s.87-31.32 0-37.31a14.46 14.46 0 0 0-5.87-9.24s-23 5.67-26.72 10.88-1.71 40.67 0 44.58 1.23 3.79 8.23 2.83 20.88-9.82 20.88-9.82" class="g"/><path d="M287.78 403.54s1-46.28 1.77-77.37.8-80.33.8-58.64c0 2.23 1.57 4.49 1.57 6.77s-1.57 4.88-1.57 7.34v55.16c0 20-2.57 66.74-2.57 66.74" class="k"/><path d="M259.57 137.89a24.74 24.74 0 0 0-7.72 2.24c-2.77 1.37.68 3.35.68 3.35s7.33 4.87 14.71 6.22c5.65 1 7.32 3.14 7.32 3.14L261 145.36s-1.24-.46-1.32-3.11-.11-4.36-.11-4.36z" class="aj"/><path fill="url(#c)" d="M251.7 412s-.24-17 3.89-23.49 11.1-13.05 11.1-13.05a40.78 40.78 0 0 1-1.09 31.75c-7.83 16.75-8.92 13.05-8.92 13.05z"/><path d="M233.19 403.54l7.81-40.06a91.18 91.18 0 0 1 10.7 1.52c5 1.08 5 4.78 5 4.78L246 410.25z" class="f"/><path d="M214.05 396.98l9.14-46.11 12.18 1.95 3.04 5.88-9.35 43.93-5.66-2.17 9.79-43.94-10.87 46.11-8.27-5.65z" class="g"/><path d="M206.22 385.23s55.62 9.3 61.53 17.49 5.64 28.19 2.07 41.67-5 29.58-19.92 25.67-40-15.23-46.94-18.92-11.53-9.63-11.75-23.19 4.57-38.8 6.53-41.41 8.48-1.31 8.48-1.31z" class="m"/><rect width="39.64" height="22.97" x="307.06" y="216.42" class="q" rx="3.83" ry="3.83"/><path fill="#10a4d6" d="M247.43 56.37c23.33 1.27 43 2.91 66.23.85 3.34-.3 6.88-.73 9.4-2.5 1.07-.75 2-1.75 3.36-2 1.14-.23 4.53 2.82 9.36 6.3-13 6-36.41 7.45-60.78 7a97.69 97.69 0 0 1-17.22-1.39c-5.61-1.11-9.22-6-13.07-9.47"/><path d="M288.53 403s2.19-44.35 2.62-74.92.61-111 .61-111-1.05-43.36 0-51.48 2.29-12.41 4-4.73 5.49 17.66 7 19.87l1.55 2.22s14.62-21.71 15.95-23.26 7.53-8 6.87-10.64-3.68-11.3-3.68-11.3a10.82 10.82 0 0 0-.95-3 3.81 3.81 0 0 0-1.86-1.62c-3.32-1.55-5.35-.55-5.35-.55l1.63-.18s5.78-.16 4.89 3.17-15.95 15.95-22.82 18.83a49.8 49.8 0 0 1-4.77 1.83" class="k"/><path d="M288.54 403.5s1-42.82 1.79-74.48 4.82-86.34 0-115.84S279.15 160 279.15 160l-1.82-5.72-4.23-3.46-13.21-6.23-.1-7.39a27.73 27.73 0 0 0-5.68 1.19c-3.64 1.08-3.61 3.64-3.61 3.64s-.12 11.2 0 13.85 20.7 19.22 20.7 19.22a171.59 171.59 0 0 0 2.11-19.22c.34-8.87 5 0 5 0s4 15.52 8 30.59 4.89 42.27 4.89 42.27v40.51c0 2.26 1.6 4.57 1.6 6.9s-1.6 5-1.6 7.47v56.18c0 20.39-2.61 63.66-2.61 63.66" class="m"/><path d="M259.79 137.24a25.31 25.31 0 0 0-7.86 2.28c-2.82 1.39.7 3.41.7 3.41s7.46 5 15 6.34c5.75 1 7.45 3.2 7.45 3.2l-13.86-7.62s-1.27-.48-1.35-3.17-.08-4.44-.08-4.44z" class="aj"/></svg>
