<?xml version="1.0" encoding="UTF-8"?>
<!-- Created with Inkscape (http://www.inkscape.org/) -->
<svg width="8.0687mm" height="10.577mm" version="1.1" viewBox="0 0 8.068749 10.577085" xmlns="http://www.w3.org/2000/svg" xmlns:cc="http://creativecommons.org/ns#" xmlns:dc="http://purl.org/dc/elements/1.1/" xmlns:rdf="http://www.w3.org/1999/02/22-rdf-syntax-ns#">
 <metadata>
  <rdf:RDF>
   <cc:Work rdf:about="">
    <dc:format>image/svg+xml</dc:format>
    <dc:type rdf:resource="http://purl.org/dc/dcmitype/StillImage"/>
    <dc:title/>
   </cc:Work>
  </rdf:RDF>
 </metadata>
 <g transform="translate(-49.78 -134.2)">
  <g transform="matrix(.26458 0 0 .26458 45.215 133.34)">
   <path class="st1" d="m26.2 38.8c-0.3 0-0.5 0.1-0.7 0.3-0.1 0.2-0.2 0.4-0.2 0.7s0.1 0.6 0.3 0.8 0.4 0.3 0.6 0.3c0.3 0 0.6-0.1 0.7-0.3s0.2-0.4 0.2-0.7-0.1-0.5-0.3-0.8c-0.1-0.2-0.3-0.3-0.6-0.3zm6.6 0c-0.3 0-0.5 0.1-0.7 0.3-0.1 0.2-0.2 0.4-0.2 0.7s0.1 0.6 0.3 0.8 0.4 0.3 0.7 0.3 0.6-0.1 0.7-0.3 0.2-0.4 0.2-0.7-0.1-0.5-0.3-0.8c-0.2-0.2-0.4-0.3-0.7-0.3zm9.9 0c-0.3 0-0.5 0.1-0.7 0.3-0.1 0.2-0.2 0.4-0.2 0.7s0.1 0.6 0.3 0.8 0.4 0.3 0.7 0.3 0.6-0.1 0.7-0.3 0.2-0.4 0.2-0.7-0.1-0.5-0.3-0.8c-0.2-0.2-0.4-0.3-0.7-0.3zm-41.7 5.2h63v-43h-63zm22.8-2.5h-0.8l-2.7-3.6v3.6h-0.9v-5.1h0.8l2.8 3.6v-3.6h0.9zm4.2 0h-0.9v-0.2c-0.3 0.2-0.6 0.3-0.9 0.3-0.5 0-1-0.2-1.3-0.6-0.3-0.3-0.5-0.8-0.5-1.2 0-1 0.8-1.8 1.8-1.8 0.3 0 0.7 0.1 0.9 0.3v-0.2h0.9zm2.7-2.7h-0.3c-0.2 0-0.4 0.1-0.5 0.2-0.1 0.2-0.2 0.5-0.1 0.8v1.7h-0.9v-3.4h0.9v0.2c0.2-0.2 0.4-0.3 0.7-0.2h0.3zm3.9 2.7h-0.9v-0.2c-0.3 0.2-0.6 0.3-0.9 0.3-0.5 0-1-0.2-1.3-0.6-0.3-0.3-0.5-0.7-0.5-1.2 0-1 0.8-1.8 1.8-1.8h0.1c0.3 0 0.7 0.1 0.9 0.3v-0.2h0.9zm3.9 0h-0.8v-1.7c0-0.3 0-0.5-0.2-0.8-0.1-0.1-0.3-0.2-0.5-0.2s-0.4 0.1-0.6 0.2c-0.1 0.2-0.2 0.5-0.2 0.8v1.7h-0.9v-3.4h0.9v0.2c0.2-0.2 0.5-0.3 0.8-0.3 0.4 0 0.8 0.2 1.1 0.5s0.4 0.8 0.4 1.2zm1.8 0.2c-0.1 1.5-1.7 1.6-1.7 1.6v-0.8c0.4 0 0.8-0.3 0.9-0.8v-3.5h0.9v3.5zm0-4.4c-0.1 0.1-0.2 0.2-0.4 0.2-0.1 0-0.3-0.1-0.4-0.2-0.2-0.2-0.2-0.6 0-0.8 0.1-0.1 0.3-0.2 0.4-0.2s0.3 0.1 0.4 0.2c0.2 0.2 0.2 0.6 0 0.8zm4.2 4.2h-0.9v-0.2c-0.3 0.2-0.6 0.3-0.9 0.3-0.5 0-1-0.2-1.3-0.6-0.3-0.3-0.4-0.7-0.4-1.2 0-1 0.8-1.8 1.8-1.8 0.3 0 0.7 0.1 0.9 0.3v-0.2h0.9zm1.9-36.7c0.2-0.1 0.4-0.2 0.6-0.2 0.5 0 0.8 0.4 0.8 0.8 0 0.2-0.1 0.4-0.3 0.6-0.3 0.3-0.8 0.3-1.1 0-0.2-0.2-0.2-0.4-0.2-0.6-0.1-0.2 0-0.5 0.2-0.6zm-29.2 18.3c4.8 0 8.6-3.9 8.6-8.6v-8c0-1.6 1.3-2.9 2.9-2.8 1 0 2 0.6 2.5 1.5l8.3 15.1v-13.8c-0.1-1.6 1.1-2.9 2.7-3s2.9 1.1 3 2.7v0.3 24.9 0.3 0.3l-0.1 0.3-0.1 0.3-0.1 0.2-0.2 0.2-0.2 0.2-0.2 0.2-0.2 0.2-0.2 0.2-0.1 0.1h-0.1c-0.1 0.1-0.3 0.1-0.5 0.2h-0.2c-0.2 0-0.4 0.1-0.6 0.1s-0.5 0-0.7-0.1l-0.1-0.1c-0.2-0.1-0.3-0.1-0.5-0.2l-0.2-0.1c-0.2-0.1-0.4-0.3-0.5-0.4l-0.1-0.1c-0.1-0.2-0.3-0.3-0.4-0.5l-0.1-0.1-8.7-15.5c-1.1 6.9-7 11.8-13.9 11.8zm29.8-17.1c0.4 0 0.6-0.3 0.6-0.6 0-0.2-0.1-0.4-0.2-0.5s-0.3-0.2-0.4-0.1c-0.2 0-0.3 0.1-0.5 0.2-0.1 0.1-0.2 0.3-0.2 0.4 0 0.2 0.1 0.3 0.2 0.5 0.2 0.1 0.3 0.1 0.5 0.1zm-0.3-1c0.1-0.1 0.2-0.1 0.3-0.1s0.3 0.1 0.4 0.2l-0.1 0.1c-0.1-0.1-0.2-0.1-0.2-0.1-0.1 0-0.1 0-0.2 0.1s-0.1 0.1-0.1 0.2 0 0.2 0.1 0.2c0.1 0.1 0.1 0.1 0.2 0.1h0.1l0.1-0.1 0.1 0.1c-0.1 0.1-0.2 0.2-0.3 0.2-0.3 0-0.5-0.2-0.5-0.4-0.1-0.3-0.1-0.4 0.1-0.5z" fill="none"/>
   <path class="st2" d="m23 40-2.7-3.6h-0.8v5.2h0.9v-3.6l2.7 3.6h0.8v-5.2h-0.9v3.6z" fill="#f15623"/>
   <path class="st2" d="m27.2 38.3c-0.3-0.2-0.6-0.3-0.9-0.3-1 0-1.8 0.8-1.8 1.8 0 0.4 0.2 0.9 0.5 1.2 0.3 0.4 0.8 0.6 1.3 0.6 0.3 0 0.7-0.1 0.9-0.3v0.2h0.8v-3.4h-0.9zm-0.2 2.2c-0.2 0.2-0.4 0.4-0.7 0.3-0.2 0-0.5-0.1-0.6-0.3-0.2-0.2-0.3-0.5-0.3-0.8 0-0.2 0.1-0.5 0.2-0.7 0.2-0.2 0.4-0.4 0.7-0.3 0.2 0 0.5 0.1 0.7 0.3s0.3 0.5 0.3 0.8c-0.1 0.2-0.2 0.5-0.3 0.7zm2.7-2.2v-0.2h-0.9v3.4h0.9v-1.6c0-0.3 0-0.5 0.1-0.8 0.1-0.2 0.3-0.2 0.5-0.2h0.3v-0.8h-0.3c-0.1 0-0.4 0.1-0.6 0.2zm4 0c-0.3-0.2-0.6-0.3-0.9-0.3-1 0-1.8 0.8-1.8 1.8v0.1c0 0.4 0.2 0.9 0.5 1.2 0.3 0.4 0.8 0.6 1.3 0.6 0.3 0 0.7-0.1 0.9-0.3v0.2h0.9v-3.4h-0.9zm-0.2 2.2c-0.2 0.2-0.4 0.4-0.7 0.3-0.2 0-0.5-0.1-0.7-0.3s-0.3-0.5-0.3-0.8c0-0.2 0.1-0.5 0.2-0.7 0.2-0.2 0.4-0.4 0.7-0.3 0.2 0 0.5 0.1 0.7 0.3s0.3 0.5 0.3 0.8c0.1 0.2 0 0.5-0.2 0.7zm3.6-2.5c-0.3 0-0.6 0.1-0.8 0.3v-0.2h-0.9v3.4h0.9v-1.7c0-0.3 0-0.6 0.2-0.8 0.1-0.2 0.4-0.3 0.6-0.2 0.2 0 0.3 0.1 0.5 0.2 0.1 0.2 0.2 0.5 0.2 0.8v1.8h0.9v-1.8c0-0.4-0.1-0.9-0.4-1.2-0.4-0.4-0.8-0.6-1.2-0.6zm2.8-1.6c-0.1 0-0.3 0-0.4 0.2-0.2 0.2-0.2 0.6 0 0.8 0.1 0.1 0.2 0.2 0.4 0.2 0.1 0 0.3-0.1 0.4-0.2 0.2-0.2 0.2-0.6 0-0.8-0.1-0.2-0.3-0.2-0.4-0.2zm3.7 1.9c-0.3-0.2-0.6-0.3-0.9-0.3-1 0-1.8 0.8-1.8 1.8 0 0.4 0.1 0.9 0.4 1.2 0.3 0.4 0.8 0.6 1.3 0.6 0.3 0 0.7-0.1 0.9-0.3v0.2h0.9v-3.4h-0.9zm-0.1 2.2c-0.2 0.2-0.4 0.4-0.7 0.3-0.2 0-0.5-0.1-0.7-0.3s-0.3-0.5-0.3-0.8c0-0.2 0.1-0.5 0.2-0.7 0.2-0.2 0.4-0.4 0.7-0.3 0.2 0 0.5 0.1 0.7 0.3s0.3 0.5 0.3 0.8c0 0.2-0.1 0.5-0.2 0.7zm-4.1 1.2c0 0.4-0.4 0.8-0.8 0.8v0.8s1.7 0 1.7-1.6v-3.7h-0.9z" fill="#f15623"/>
   <path class="st3" d="m31.3 17.2-5.1-9.3c-0.2-0.4-0.3-0.9-0.3-1.4v8c0 4.8-3.9 8.6-8.6 8.6v5.7c6.8 0.1 12.7-4.8 14-11.6z" fill="#ff9e16"/>
   <path class="st4" d="m31.3 17.2-5.1-9.3c-0.2-0.4-0.3-0.9-0.3-1.4v8c0 4.8-3.9 8.6-8.6 8.6v5.7c6.8 0.1 12.7-4.8 14-11.6z" fill="url(#SVGID_1_)"/>
   <path class="st2" d="m47 6.2c0.4 0 0.8-0.4 0.8-0.8 0-0.2-0.1-0.4-0.2-0.6-0.2-0.2-0.4-0.3-0.6-0.3s-0.4 0.1-0.5 0.2c-0.2 0.1-0.3 0.4-0.3 0.6s0.1 0.4 0.2 0.6 0.4 0.3 0.6 0.3zm-0.5-1.2c0.1-0.2 0.3-0.3 0.5-0.2 0.2 0 0.3 0.1 0.4 0.2 0.2 0.2 0.2 0.7 0 0.9s-0.7 0.2-0.9 0c-0.1-0.1-0.2-0.3-0.2-0.5s0.1-0.3 0.2-0.4zm0.5 0.9c0.1 0 0.3-0.1 0.3-0.2l-0.1-0.1-0.2 0.1h-0.1c-0.1 0-0.1 0-0.2-0.1s-0.1-0.1-0.1-0.2 0-0.2 0.1-0.2c0.1-0.1 0.1-0.1 0.2-0.1s0.1 0 0.2 0.1l0.1-0.1c0-0.1-0.1-0.2-0.2-0.2-0.3 0-0.5 0.2-0.5 0.5 0 0.2 0.2 0.5 0.5 0.5z" fill="#f15623"/>
   <path class="st5" d="m44.3 33.5-0.2 0.2zm-0.6 0.4 0.1-0.1zm1-0.9-0.2 0.2zm-1.5 1.1h-0.2zm-2.9-0.7zm0.7 0.5-0.2-0.1zm4-1.3c0 0.1-0.1 0.2-0.1 0.2zm-3.3 1.5-0.2-0.1zm3.4-2c0 0.1 0 0.2-0.1 0.3z" fill="#9b282d"/>
   <path class="st5" d="m45.2 31.5v0.3-0.3zm-19.1-23.6l5.1 9.3 8.6 15.5 0.1 0.1c-0.3-0.4-0.4-0.9-0.4-1.4v-11.1l-8.3-15.1c-0.8-1.4-2.5-1.9-3.9-1.1-0.9 0.5-1.5 1.5-1.5 2.5 0 0.4 0.1 0.9 0.3 1.3z" fill="#9b282d"/>
   <path class="st2" d="m39.9 32.8c0.1 0.2 0.2 0.4 0.4 0.5l0.1 0.1c0.2 0.2 0.3 0.3 0.5 0.4l0.2 0.1c0.2 0.1 0.3 0.1 0.5 0.2l0.2 0.1c0.2 0.1 0.4 0.1 0.7 0.1 0.2 0 0.4 0 0.6-0.1h0.2c0.2 0 0.3-0.1 0.5-0.2l0.2-0.1 0.2-0.2 0.2-0.2 0.2-0.2 0.2-0.2 0.2-0.2c0-0.1 0.1-0.2 0.1-0.2l0.1-0.3 0.1-0.3v-0.3-0.3-25c0.1-1.6-1.1-2.9-2.7-3s-2.9 1.1-3 2.7v0.3 24.8c-0.2 0.6 0 1.1 0.3 1.5z" fill="#f15623"/>
  </g>
 </g>
 <style type="text/css">.st0{fill:#F7F7F8;}
	.st1{fill:none;}
	.st2{fill:#F15623;}
	.st3{fill:#FF9E16;}
	.st4{fill:url(#SVGID_1_);}
	.st5{fill:#9B282D;}
	.st6{fill:#E5E5E5;}</style>
</svg>
